<?xml version="1.0" encoding="UTF-8" standalone="no"?>
<!DOCTYPE svg PUBLIC "-//W3C//DTD SVG 1.1//EN" "http://www.w3.org/Graphics/SVG/1.1/DTD/svg11.dtd">
<!-- Generated by Microsoft Visio, SVG Export Framework.svg Page-1 -->
<svg xmlns="http://www.w3.org/2000/svg" xmlns:xlink="http://www.w3.org/1999/xlink" xmlns:ev="http://www.w3.org/2001/xml-events"
		xmlns:v="http://schemas.microsoft.com/visio/2003/SVGExtensions/"
		viewBox="0 0 581.666 427.868" xml:space="preserve" color-interpolation-filters="sRGB" class="st8">
	<v:documentProperties v:langID="1033" v:viewMarkup="false"/>

	<style type="text/css">
	<![CDATA[
		.st1 {fill:#989898;stroke:none;stroke-linecap:butt;stroke-width:5.32174}
		.st2 {stroke:none;stroke-linecap:butt;stroke-width:5.32174}
		.st3 {fill:#f3f3f3;stroke:none;stroke-linecap:butt;stroke-width:5.32174}
		.st4 {fill:#b2b2b2;fill-opacity:0.3;stroke:#f15f43;stroke-linecap:butt;stroke-opacity:0.3;stroke-width:5.32174}
		.st5 {fill:none;stroke:#f15f43;stroke-linecap:butt;stroke-width:5.32174}
		.st6 {stroke:#f15f43;stroke-linecap:butt;stroke-width:5.32174}
		.st7 {fill:none}
		.st8 {fill:none;fill-rule:evenodd;font-size:12px;overflow:visible;stroke-linecap:square;stroke-miterlimit:3}
	]]>
	</style>

	<g v:mID="0" v:index="1" v:groupContext="foregroundPage">
		<title>Page-1</title>
		<v:pageProperties v:drawingScale="0.0393701" v:pageScale="0.0393701" v:drawingUnits="24" v:shadowOffsetX="9"
				v:shadowOffsetY="-9"/>
		<g id="group37-1" transform="translate(5.32174,-5.32174)" v:mID="37" v:groupContext="group">
			<title>Sheet.37</title>
			<g id="shape2-2" v:mID="2" v:groupContext="shape" transform="translate(-3.9968E-014,-178.278)">
				<title>XMLID_67_</title>
				<path d="M55.88 427.87 L22.88 401.79 L40.98 379.44 L34.06 364.54 L4.79 367.73 L0 323.56 L29.27 320.37 L32.99 304.4
							 L10.64 286.31 L37.25 253.85 L59.6 271.41 L74.5 264.49 L71.31 235.22 L115.48 230.43 L118.67 260.23 L136.24
							 263.96 L135.17 269.28 L113.35 264.49 L110.16 236.82 L77.7 240.01 L80.36 268.22 L58.54 278.33 L38.32
							 261.83 L18.63 285.78 L39.38 302.27 L34.06 325.69 L5.85 328.88 L9.58 361.35 L37.78 358.15 L47.36 380.5
							 L31.4 400.73 L54.81 419.89 L70.25 401.26 L75.04 404.45 L55.88 427.87 Z" class="st1"/>
			</g>
			<g id="group3-4" transform="translate(154.33,-117.61)" v:mID="3" v:groupContext="group">
				<title>XMLID_62_</title>
				<g id="shape4-5" v:mID="4" v:groupContext="shape" transform="translate(-424.675,303.871) rotate(-90)">
					<title>XMLID_64_</title>
					<path d="M0 427.87 L128.79 427.87" class="st2"/>
				</g>
				<g id="shape5-8" v:mID="5" v:groupContext="shape">
					<title>XMLID_63_</title>
					<path d="M416.69 427.87 L145.82 427.87 L145.82 422.01 L411.37 422.01 L411.37 134.11 L5.85 134.11 L5.85 303.87
								 L0 303.87 L0 128.25 L416.69 128.25 L416.69 427.87 Z" class="st1"/>
				</g>
			</g>
			<g id="shape6-10" v:mID="6" v:groupContext="shape" transform="translate(157.523,-371.457)">
				<title>XMLID_61_</title>
				<rect x="0" y="422.014" width="408.177" height="5.85391" class="st1"/>
			</g>
			<g id="shape8-12" v:mID="8" v:groupContext="shape" transform="translate(89.9374,-2.66087)">
				<title>XMLID_60_</title>
				<path d="M177.21 245.33 L177.21 404.98 C177.21 405.52 177.75 406.05 177.75 406.58 C175.09 418.29 136.24 427.87 91.53
							 427.87 C46.83 427.87 3.19 420.42 0 408.18 L0.53 407.65 L0.53 245.86 L4.79 245.86 C4.79 245.86 4.79 244.27
							 4.79 244.8 C4.79 257.04 44.7 262.89 91 262.89 C134.64 263.43 171.89 256.51 177.21 245.33 Z"
						class="st3"/>
			</g>
			<g id="shape10-14" v:mID="10" v:groupContext="shape" transform="translate(92.5983,-166.57)">
				<title>XMLID_56_</title>
				<path d="M176.15 406.05 C176.15 406.58 176.15 407.65 176.15 408.18 C170.83 419.35 132.51 427.87 88.34 427.87 C40.98
							 427.87 0 417.76 0 405.52 C0 404.98 0 404.45 0 404.45 C2.13 393.28 42.04 383.7 88.34 383.7 C134.64 383.7
							 176.15 393.81 176.15 406.05 Z" class="st3"/>
			</g>
			<g id="shape11-16" v:mID="11" v:groupContext="shape" transform="translate(87.8087,-163.377)">
				<title>XMLID_53_</title>
				<path d="M91 427.87 C46.3 427.87 0 418.29 0 402.86 L0 402.32 C0 401.79 0 401.26 0 400.73 C3.19 386.36 48.43 377.84
							 91 377.84 C135.7 377.84 182.54 386.36 182.54 402.32 C182.54 402.86 181.47 403.92 181.47 404.45 C181.47
							 404.45 180.94 404.98 180.94 404.98 L180.94 405.52 L180.94 406.05 C174.02 420.42 130.38 427.87 91 427.87
							 ZM5.32 401.79 C5.32 402.32 5.32 402.32 5.32 402.86 C5.32 410.84 38.85 422.01 91 422.01 C137.3 422.01
							 170.83 412.97 176.15 404.45 C176.15 404.45 176.15 403.92 176.15 403.92 C176.15 403.39 176.15 403.39
							 176.15 402.86 C176.15 394.87 142.62 383.7 90.47 383.7 C40.98 383.7 7.45 394.34 5.32 401.79 Z"
						class="st1"/>
			</g>
			<g id="group14-18" transform="translate(200.63,-233.624)" v:mID="14" v:groupContext="group">
				<title>XMLID_47_</title>
				<g id="shape15-19" v:mID="15" v:groupContext="shape">
					<title>XMLID_50_</title>
					<ellipse cx="22.8835" cy="404.984" rx="22.8835" ry="22.8835" class="st4"/>
				</g>
				<g id="shape16-21" v:mID="16" v:groupContext="shape">
					<title>XMLID_48_</title>
					<ellipse cx="22.8835" cy="404.984" rx="22.8835" ry="22.8835" class="st5"/>
				</g>
			</g>
			<g id="group17-23" transform="translate(334.737,-186.261)" v:mID="17" v:groupContext="group">
				<title>XMLID_43_</title>
				<g id="shape18-24" v:mID="18" v:groupContext="shape">
					<title>XMLID_46_</title>
					<ellipse cx="22.8835" cy="404.984" rx="22.8835" ry="22.8835" class="st4"/>
				</g>
				<g id="shape19-26" v:mID="19" v:groupContext="shape">
					<title>XMLID_44_</title>
					<ellipse cx="22.8835" cy="404.984" rx="22.8835" ry="22.8835" class="st5"/>
				</g>
			</g>
			<g id="group20-28" transform="translate(301.743,-278.327)" v:mID="20" v:groupContext="group">
				<title>XMLID_39_</title>
				<g id="shape21-29" v:mID="21" v:groupContext="shape">
					<title>XMLID_42_</title>
					<ellipse cx="22.8835" cy="404.984" rx="22.8835" ry="22.8835" class="st4"/>
				</g>
				<g id="shape22-31" v:mID="22" v:groupContext="shape">
					<title>XMLID_40_</title>
					<ellipse cx="22.8835" cy="404.984" rx="22.8835" ry="22.8835" class="st5"/>
				</g>
			</g>
			<g id="group23-33" transform="translate(417.757,-278.327)" v:mID="23" v:groupContext="group">
				<title>XMLID_35_</title>
				<g id="shape24-34" v:mID="24" v:groupContext="shape">
					<title>XMLID_38_</title>
					<ellipse cx="22.8835" cy="404.984" rx="22.8835" ry="22.8835" class="st4"/>
				</g>
				<g id="shape25-36" v:mID="25" v:groupContext="shape">
					<title>XMLID_36_</title>
					<ellipse cx="22.8835" cy="404.984" rx="22.8835" ry="22.8835" class="st5"/>
				</g>
			</g>
			<g id="shape26-38" v:mID="26" v:groupContext="shape" transform="translate(100.086,-244.291) rotate(-19.4659)">
				<title>XMLID_34_</title>
				<path d="M0 427.87 L65.47 427.87" class="st6"/>
			</g>
			<g id="shape27-41" v:mID="27" v:groupContext="shape" transform="translate(395.182,-216.164) rotate(20.882)">
				<title>XMLID_33_</title>
				<path d="M0 427.87 L98.54 427.87" class="st6"/>
			</g>
			<g id="shape28-44" v:mID="28" v:groupContext="shape" transform="translate(348.574,-300.146)">
				<title>XMLID_32_</title>
				<path d="M0 427.87 L69.18 427.87" class="st6"/>
			</g>
			<g id="shape29-47" v:mID="29" v:groupContext="shape" transform="translate(465.652,-300.146)">
				<title>XMLID_31_</title>
				<path d="M0 427.87 L63.86 427.87" class="st6"/>
			</g>
			<g id="shape30-50" v:mID="30" v:groupContext="shape" transform="translate(380.504,-209.677)">
				<title>XMLID_30_</title>
				<path d="M0 427.87 L74.5 427.87" class="st6"/>
			</g>
			<g id="shape31-53" v:mID="31" v:groupContext="shape" transform="translate(511.951,-283.73)">
				<title>XMLID_29_</title>
				<path d="M0 395.41 L20.22 411.9 L0 427.87 L0 395.41 Z" class="st7"/>
				<path d="M0 395.41 L20.22 411.9 L0 427.87" class="st6"/>
			</g>
			<g id="shape32-56" v:mID="32" v:groupContext="shape" transform="translate(438.582,-193.157)">
				<title>XMLID_28_</title>
				<path d="M0 395.41 L20.75 411.37 L0 427.87 L0 395.41 Z" class="st7"/>
				<path d="M0 395.41 L20.75 411.37 L0 427.87" class="st6"/>
			</g>
			<g id="shape34-59" v:mID="34" v:groupContext="shape" transform="translate(88.3407,-108.813)">
				<title>Sheet.34</title>
				<path d="M182 402.86 L176.84 402.86 L176.84 404.98 C171.53 413.5 138.07 422.55 92.4 422.55 C40.36 422.55 5.84 411.37
							 5.84 402.86 L0 402.86 C0 419.89 47.26 427.87 91.87 427.87 C130.92 427.87 174.17 421.04 182 406.85 L182
							 402.86 Z" class="st1"/>
			</g>
			<g id="shape36-61" v:mID="36" v:groupContext="shape" transform="translate(87.8087,-52.7067)">
				<title>Sheet.36</title>
				<path d="M182.3 402.32 L177.21 402.32 L177.21 404.45 C171.89 412.97 138.37 422.01 92.6 422.01 C40.45 422.01 5.85
							 410.84 5.85 402.32 L0 402.32 C0 419.35 47.36 427.87 92.07 427.87 C131.05 427.87 174.2 421.09 182.3 407.02
							 L182.3 402.32 Z" class="st1"/>
			</g>
		</g>
		<g id="shape50-63" v:mID="50" v:groupContext="shape" transform="translate(93.4127,-22.2596)">
			<title>Sheet.50</title>
			<path d="M1.34 426.6 L2.25 427.5 L3.25 427.87 L3.25 425.17 L7 425.17 C6.31 424.28 5.96 423.41 5.96 422.56 L0 422.56 C0
						 423.3 0.09 424.03 0.27 424.74 L1.34 426.6 Z" class="st1"/>
		</g>
		<g id="shape53-65" v:mID="53" v:groupContext="shape" transform="translate(93.1304,-5.32174)">
			<title>Sheet.53</title>
			<path d="M182.58 402.16 C182.56 402.02 182.54 401.9 182.54 401.79 L182.54 237.88 L177.21 241.07 C173.49 249.06 143.15
						 257.57 94.19 257.57 C39.91 257.57 11.18 249.59 11.18 242.14 L11.18 240.54 L6.92 240.54 C6.39 240.54 5.32
						 239.48 4.79 240.54 L0 238.95 L0 406.05 C4.26 423.61 62.8 427.87 93.66 427.87 C133.32 427.87 175.98 419.89
						 182.05 405.87 L182.58 402.16 ZM5.32 406.05 L6.39 406.05 L6.39 246.4 C15.43 262.36 75.04 263.43 94.19 263.43
						 C125.06 263.43 162.31 259.7 177.21 249.59 L177.21 403.92 C173.49 411.9 141.03 422.55 93.66 422.55 C45.23
						 422.55 10.11 414.03 5.32 406.05 Z" class="st1"/>
		</g>
		<g id="shape54-67" v:mID="54" v:groupContext="shape" transform="translate(98.9275,-174.816)">
			<title>XMLID_56_</title>
			<path d="M172.06 408.14 C172.06 408.62 172.06 409.59 172.06 410.07 C166.86 420.17 129.44 427.87 86.29 427.87 C40.03 427.87
						 0 418.73 0 407.66 C0 407.18 0 406.7 0 406.7 C2.08 396.6 41.07 387.94 86.29 387.94 C131.52 387.94 172.06
						 397.08 172.06 408.14 Z" class="st3"/>
		</g>
		<g id="shape60-69" v:mID="60" v:groupContext="shape" transform="translate(94.1922,-184.319)">
			<title>Sheet.60</title>
			<path d="M0 416.42 C0.89 420.09 2.53 423.32 5.07 425.87 L8.53 427.87 L9.79 425.68 L7.95 424.62 C5.61 422.12 4.23 417.82
						 4.03 412.39 L0 416.42 Z" class="st1"/>
		</g>
	</g>
</svg>
