<?xml version="1.0" encoding="utf-8"?>
<!-- Generator: Adobe Illustrator 18.1.1, SVG Export Plug-In . SVG Version: 6.00 Build 0)  -->
<!DOCTYPE svg PUBLIC "-//W3C//DTD SVG 1.1//EN" "http://www.w3.org/Graphics/SVG/1.1/DTD/svg11.dtd">
<svg version="1.1" id="Layer_1" xmlns="http://www.w3.org/2000/svg" xmlns:xlink="http://www.w3.org/1999/xlink" x="0px" y="0px"
	 viewBox="0 0 80 80" enable-background="new 0 0 80 80" xml:space="preserve">
<g>
	<g>
		<path fill="#666666" d="M-53.1,16.8l-5.8-3.8l-4.5,5.4c-0.7-0.2-1.4-0.4-2.1-0.5c-0.7-0.1-1.3-0.2-2-0.2l-2.3-6.7l-6.8,1.6
			l0.5,7.1c-1.3,0.7-2.4,1.5-3.5,2.5l-6.2-3l-3.8,6.1l5.2,4.5c-0.2,0.7-0.4,1.5-0.6,2.2c-0.1,0.7-0.2,1.4-0.2,2l-6.5,2.5l1.4,7
			l6.8-0.6c0.6,1.3,1.4,2.4,2.3,3.5l-2.9,6.6l5.8,3.8l4.6-5.4c0.5,0.2,1,0.3,1.6,0.4l0.7-1.2c-0.8-0.1-1.5-0.3-2.3-0.6l-0.4-0.1
			l-4.4,5.2l-3.9-2.6l2.8-6.3l-0.3-0.3c-1-1.2-1.9-2.5-2.6-3.9l-0.2-0.4l-6.6,0.6l-1-4.7l6.3-2.5l0-0.5c0-0.8,0.1-1.5,0.2-2.3
			c0.1-0.9,0.4-1.7,0.6-2.5l0-0.1l0.1-0.4l-5-4.3l2.6-4.1l6,2.9l0.3-0.3c1.2-1.1,2.5-2.1,3.9-2.8l0.4-0.2l-0.5-6.8l4.6-1.1l2.2,6.4
			l0.4,0c0.7,0,1.5,0.1,2.2,0.2c0.8,0.1,1.5,0.3,2.3,0.6l0.4,0.2l4.4-5.2l3.9,2.6l-2.9,6.2l0.3,0.3c0.8,0.9,1.5,1.9,2.1,2.9l1-0.9
			c-0.5-0.9-1.2-1.8-1.9-2.6L-53.1,16.8z"/>
	</g>
</g>
<g>
	<line fill="none" stroke="#F15F43" stroke-width="1.25" stroke-miterlimit="10" x1="-52.4" y1="46.6" x2="-49.1" y2="49.9"/>
	
		<rect x="-45.7" y="47.3" transform="matrix(-0.7071 0.7071 -0.7071 -0.7071 -33.4686 126.1868)" fill="none" stroke="#F15F43" stroke-width="1.25" stroke-miterlimit="10" width="5.6" height="17.7"/>
</g>
<g>
	<polygon fill="none" stroke="#F15F43" stroke-width="1.25" stroke-miterlimit="10" points="-67.7,34.6 -63.8,30.6 -70.4,26.7 
		-71.7,28 	"/>
	<line fill="none" stroke="#F15F43" stroke-width="1.25" stroke-miterlimit="10" x1="-57.2" y1="41.2" x2="-65.8" y2="32.6"/>
</g>
<path fill="none" stroke="#F15F43" stroke-width="1.25" stroke-miterlimit="10" d="M-37.9,32.4l-5.3,2.5l-2.6-2.7l2.3-5.3l0,0
	c-6.6,0-8.3,3.3-8.3,6.6V36l-22.1,22.4l-1.2,4l1.4,1.3l4-1l22.5-22.1h2.6C-41.2,40.6-37.9,39-37.9,32.4L-37.9,32.4z"/>
<g>
	<path fill="none" stroke="#F15F43" stroke-width="1.25" stroke-miterlimit="10" d="M48.5,34.4c1.8-5.6,2.2-11.3,0.2-17
		c-1.1-3.3-3-6.1-6.2-7.9C39.8,8,36.8,7.2,33.6,7c-4.3-0.2-8.4,0.4-12.5,1.7c-2.8,0.9-5.3,2.3-7.3,4.4c-0.6,0.6-1,1.3-0.9,2.3
		c0.1,0.8-0.1,1.6-0.5,2.3c-1.1,2.6-1.5,5.3-1.4,8.1c0,0.6,0.3,1.2,0.4,1.8c0,0.2,0,0.4-0.1,0.6c-0.3,0.5-0.7,0.9-1,1.4
		c-0.7,1.1-1.5,2.2-2.1,3.3c-0.5,0.8-0.2,1.4,0.6,1.8c0.2,0.1,0.5,0.2,0.8,0.3c0.3,0.1,0.5,0.2,0.8,0.3c0.4,0.1,0.5,0.4,0.4,0.8
		c-0.1,0.5-0.2,1-0.4,1.5c-0.2,0.8,0,1.4,0.5,2c0.1,0.1,0.2,0.4,0.1,0.6C11,41,11,41.8,11.7,42.5c0.1,0.1,0.1,0.2,0.2,0.3
		c0.3,0.4,0.4,0.7,0.2,1.2c-0.3,1.2-0.1,2.3,0.7,3.2c1.2,1.4,2.6,2,4.4,1.9c1.2-0.1,2.4-0.2,3.6-0.2c1-0.1,1.5,0.5,1.9,1.3
		c0.5,0.9,1.1,1.8,1.7,2.6c0.6,0.8,1.3,1.6,2,2.4c0.7,0.9,1.4,1.8,2.1,2.6c0.2,0.3,0.3,0.5,0.2,0.7c-0.2,0.6-0.4,1.1-0.7,1.7
		c-1.2,2.4-2.3,4.9-3.5,7.3"/>
</g>
<g>
	<g>
		<path fill="none" stroke="#666666" stroke-width="1.25" stroke-miterlimit="10" d="M61,37.6c0.9,0,1.8-0.1,2.7-0.3l2.3,3l2.9-1.6
			l-1.4-3.6c0.3-0.3,0.7-0.7,1-1c0.3-0.3,0.5-0.7,0.7-1.1l3.8,0.5l0.9-3.2l-3.5-1.5c0-0.9-0.1-1.9-0.3-2.7l3-2.3L71.5,21L68,22.4
			c-0.3-0.3-0.7-0.7-1-1c-0.4-0.3-0.7-0.5-1.1-0.7l0.5-3.8L63.2,16l-1.5,3.5c-0.9,0-1.9,0.1-2.8,0.3l-2.3-3.1l-2.9,1.6l1.4,3.5l0,0
			c-0.4,0.3-0.7,0.7-1,1.1c-0.1,0.2-0.2,0.3-0.4,0.5"/>
	</g>
</g>
<g>
	<g>
		<path fill="none" stroke="#666666" stroke-width="1.25" stroke-miterlimit="10" d="M56.9,42.1c-0.4-0.5-0.8-1-1.2-1.4l2.2-5.1
			l-4-2.5l-3.5,4.2c-1.3-0.4-2.6-0.6-3.9-0.7l-2-5.1l-4.6,1.1l0.5,5.5c-0.6,0.3-1.2,0.6-1.7,1c-0.5,0.4-1,0.8-1.5,1.2l-5-2.2l-2.5,4
			l4.2,3.5c-0.4,1.3-0.6,2.6-0.7,3.9l-5.1,1.9l1.1,4.6l5.4-0.6l0,0c0.3,0.6,0.7,1.2,1.1,1.8c0.4,0.5,0.8,1,1.2,1.4l-2.2,5l4,2.5
			l3.4-4.2c1.2,0.4,2.5,0.6,3.9,0.7l2,5.1l4.6-1.1l-0.5-5.5l0,0c0.6-0.3,1.2-0.6,1.7-1c0.5-0.4,1-0.8,1.4-1.2l5,2.2l2.5-4l-4.2-3.5
			c0.4-1.2,0.6-2.5,0.7-3.8l5.1-2l-1.1-4.6l-5.5,0.5C57.6,43.3,57.3,42.7,56.9,42.1z"/>
	</g>
</g>
</svg>
