<?xml version="1.0" encoding="utf-8"?>
<!-- Generator: Adobe Illustrator 18.1.1, SVG Export Plug-In . SVG Version: 6.00 Build 0)  -->
<!DOCTYPE svg PUBLIC "-//W3C//DTD SVG 1.1 Tiny//EN" "http://www.w3.org/Graphics/SVG/1.1/DTD/svg11-tiny.dtd">
<svg version="1.1" baseProfile="tiny" id="Layer_1" xmlns="http://www.w3.org/2000/svg" xmlns:xlink="http://www.w3.org/1999/xlink"
	 x="0px" y="0px" viewBox="0 -164 1280 1128" xml:space="preserve">
<g>
	<g>
		<path fill="#666666" d="M-506,104l-74-49l-58,70c-9-3-18-5-27-7c-8-2-17-2-25-3l-30-85l-87,20l6,91c-16,9-31,19-45,32l-79-38
			l-49,78l67,58c-3,9-5,19-7,29c-2,9-3,17-3,26l-83,33l18,90l88-8c8,16,18,31,30,45l-37,84l74,49l59-69c7,2,13,4,20,5l9-16
			c-10-2-19-4-30-8l-5-1l-56,66l-50-33l36-81l-4-4c-13-15-25-32-33-50l-3-5l-84,8l-12-60l80-31v-6c0-10,1-19,3-29c2-11,5-22,8-32v-1
			l1-6l-64-55l33-52l76,37l4-4c15-15,32-27,50-36l5-3l-6-87l59-13l29,82h6c9,0,19,1,29,3c10,2,20,4,29,8l5,2l56-67l50,33l-36,80l4,4
			c10,11,19,24,27,37l13-12c-7-12-15-23-24-33L-506,104z"/>
	</g>
</g>
<g>
	<g>
		
			<rect x="-509.3" y="496.3" transform="matrix(-0.7072 -0.707 0.707 -0.7072 -1179.2017 518.3455)" fill="#F15F43" width="54" height="14"/>
		<path fill="#F15F43" d="M-342,699l-154-154l56-56l154,154L-342,699z M-476,545l134,134l35-35l-134-134L-476,545z"/>
	</g>
	<g>
		<path fill="#F15F43" d="M-679,358l-53-89l23-23l89,53L-679,358z M-714,271l38,63l33-33l-63-38L-714,271z"/>
		
			<rect x="-674.7" y="365.6" transform="matrix(-0.7071 -0.7071 0.7071 -0.7071 -1295.671 208.423)" fill="#F15F43" width="140" height="14"/>
	</g>
	<path fill="#F15F43" d="M-748,689l-22-21l15-52l254-257v-27c0-38,18-83,102-83h11l-29,67l23,24l66-31v11c0,84-45,102-83,102h-27
		l-258,254L-748,689z M-754,664l10,9l40-10l259-255h33c43,0,66-26,68-76l-55,26l-37-38l24-55c-52,3-77,25-77,68v33l-255,259
		L-754,664z"/>
</g>
<g>
	<g>
		<g>
			<path fill="#808080" d="M1031.5,577c-3.1,0-6.2-1.3-8.3-3.8c-4-4.6-3.5-11.6,1.1-15.6l53.4-46.4l-45.9-70.1
				c-2.5-3.8-2.4-8.7,0.2-12.4c12.2-17.3,21.8-36.2,28.4-56.4c1.4-4.2,5.2-7.2,9.7-7.6l84.2-6.5l4.3-61.2l-82.2-17.3
				c-4.5-0.9-7.9-4.5-8.6-9c-1.8-10.7-4.5-21.4-8-31.8c-3.2-9.5-7.1-18.7-11.7-27.4c-2.1-4-1.5-8.8,1.4-12.3l54.9-64.4l-40.2-46.2
				l-70,46c-3.8,2.5-8.8,2.4-12.5-0.2c-17.6-12.5-36.9-22.2-57.5-28.8c-4.3-1.4-7.3-5.3-7.7-9.8L911,12l-61.1-4.3l-17.4,82.2
				c-0.9,4.4-4.5,7.9-9,8.6c-10.8,1.8-21.1,4.4-31.7,8c-9.9,3.4-19.4,7.4-28.3,12c-4,2.1-8.9,1.5-12.3-1.5l-63.5-55.1L641.3,102
				l28.9,43.9c3.4,5.1,1.9,12-3.2,15.3c-5.1,3.4-12,1.9-15.3-3.2l-34.2-52c-3-4.6-2.2-10.8,2-14.4l60.9-52.8
				c4.1-3.6,10.3-3.6,14.5,0l65.2,56.6c7.9-3.7,16.1-7,24.6-9.9c9.3-3.1,18.4-5.6,27.7-7.5l17.9-84.4c1.1-5.4,6.1-9.1,11.6-8.7
				l80.3,5.7c5.5,0.4,9.9,4.8,10.3,10.3l5.7,86c17.7,6.3,34.5,14.7,50.1,25.1l71.9-47.2c4.6-3,10.8-2.2,14.4,2l52.7,60.7
				c3.6,4.1,3.6,10.2,0.1,14.4L1071,208c3.6,7.7,6.9,15.6,9.6,23.8c3.1,9.1,5.6,18.5,7.5,27.8l84.4,17.7c5.4,1.1,9.1,6.1,8.7,11.6
				l-5.6,80.4c-0.4,5.5-4.7,9.8-10.2,10.2l-86.4,6.7c-6.3,17.3-14.5,33.7-24.7,49l47.1,72c3,4.6,2.2,10.8-2,14.4l-60.7,52.7
				C1036.6,576.1,1034,577,1031.5,577z"/>
		</g>
	</g>
	<g>
		<path fill="#F15F43" d="M837.9,802.7c-2.8,0-5.7-1.1-7.8-3.2l-55.6-55.6c-2.1-2.1-3.2-4.9-3.2-7.8V612.6c0-6.1,5-11.1,11.1-11.1
			c6.1,0,11.1,5,11.1,11.1v118.9l52.3,52.3c4.3,4.3,4.3,11.3,0,15.6C843.5,801.6,840.7,802.7,837.9,802.7z"/>
		<path fill="#F15F43" d="M782.3,938.5c-6.1,0-11.1-5-11.1-11.1c0-6.1,5-11.1,11.1-11.1c99.4,0,180.3-80.9,180.3-180.3
			s-80.9-180.3-180.3-180.3c-6.1,0-11.1-5-11.1-11.1c0-6.1,5-11.1,11.1-11.1c111.6,0,202.4,90.8,202.4,202.4
			S893.9,938.5,782.3,938.5z"/>
		<path fill="#F15F43" d="M782.3,938.5c-111.6,0-202.4-90.8-202.4-202.4c0-42.5,13-83.1,37.6-117.6c0.3-0.5,0.7-1,1.2-1.4l34.7-34.7
			c4.3-4.3,11.3-4.3,15.6,0c4.3,4.3,4.3,11.3,0,15.6l-34,34.1c-21.6,30.5-33,66.5-33,104c0,99.4,80.9,180.3,180.3,180.3
			c6.1,0,11.1,5,11.1,11.1C793.3,933.6,788.4,938.5,782.3,938.5z"/>
		<path fill="#F15F43" d="M665,666.9c-6.1,0-11.1-5-11.1-11.1v-56.9h-56.9c-6.1,0-11.1-5-11.1-11.1c0-6.1,4.9-11.1,11.1-11.1H665
			c6.1,0,11.1,5,11.1,11.1v67.9C676,661.9,671.1,666.9,665,666.9z"/>
	</g>
	<g>
		<path fill="#808080" d="M739.3,436.4c-6.1,0-11.1-4.9-11.1-11.1V224h-136c-6.1,0-11.1-4.9-11.1-11.1s4.9-11.1,11.1-11.1h147
			c6.1,0,11.1,4.9,11.1,11.1v212.4C750.3,431.5,745.4,436.4,739.3,436.4z"/>
		<g>
			<g>
				<path fill="#808080" d="M522.2,806.7h-413c-6.1,0-11.1-5-11.1-11.1V346.2c0-6.1,4.9-11.1,11.1-11.1h269.3c3.6,0,6.9,1.7,9,4.6
					l66.3,92.3h370.7c6.1,0,11.1,4.9,11.1,11.1v35c0,6.1-5,11.1-11.1,11.1c-6.1,0-11.1-5-11.1-11.1v-24H448c-3.6,0-6.9-1.7-9-4.6
					l-66.3-92.3H120.2v427.3h402c6.1,0,11.1,5,11.1,11.1C533.2,801.7,528.3,806.7,522.2,806.7z"/>
				
					<path fill="none" stroke="#F15F43" stroke-width="1.25" stroke-linecap="round" stroke-linejoin="round" stroke-miterlimit="10" d="
					M744.2,427.1"/>
			</g>
			<path fill="#808080" d="M300.6,298.5c-6.1,0-11.1-4.9-11.1-11.1V213c0-6.1,4.9-11.1,11.1-11.1h290.8c6.1,0,11.1,4.9,11.1,11.1
				s-4.9,11.1-11.1,11.1H311.6v63.4C311.6,293.5,306.7,298.5,300.6,298.5z"/>
			<path fill="#808080" d="M658,284H361c-6.1,0-11.1-4.9-11.1-11.1c0-6.1,4.9-11.1,11.1-11.1h297c6.1,0,11.1,4.9,11.1,11.1
				C669,279.1,664.1,284,658,284z"/>
			<path fill="#808080" d="M654.6,332H416.4c-6.1,0-11.1-4.9-11.1-11.1c0-6.1,4.9-11.1,11.1-11.1h238.1c6.1,0,11.1,4.9,11.1,11.1
				C665.6,327.1,660.6,332,654.6,332z"/>
			<path fill="#808080" d="M651.1,380H470c-6.1,0-11.1-4.9-11.1-11.1c0-6.1,4.9-11.1,11.1-11.1h181.2c6.1,0,11.1,4.9,11.1,11.1
				C662.2,375.1,657.2,380,651.1,380z"/>
		</g>
	</g>
</g>
</svg>
