<?xml version="1.0" encoding="utf-8"?>
<!-- Generator: Adobe Illustrator 18.1.1, SVG Export Plug-In . SVG Version: 6.00 Build 0)  -->
<!DOCTYPE svg PUBLIC "-//W3C//DTD SVG 1.1//EN" "http://www.w3.org/Graphics/SVG/1.1/DTD/svg11.dtd">
<svg version="1.1" id="Layer_1" xmlns="http://www.w3.org/2000/svg" xmlns:xlink="http://www.w3.org/1999/xlink" x="0px" y="0px"
	 viewBox="0 0 80 80" enable-background="new 0 0 80 80" xml:space="preserve">
<g>
	<g>
		<path fill="#666666" d="M51.3,14.8l-6.9-4.6L39,16.7c-0.8-0.3-1.6-0.5-2.5-0.6c-0.8-0.1-1.6-0.2-2.4-0.3l-2.8-8l-8.1,1.9l0.6,8.4
			c-1.5,0.8-2.9,1.8-4.2,3l-7.4-3.6l-4.6,7.2l6.2,5.4c-0.3,0.8-0.5,1.8-0.7,2.7c-0.1,0.8-0.2,1.6-0.3,2.4l-7.8,3l1.7,8.4L15,46
			c0.7,1.5,1.7,2.9,2.8,4.2L14.4,58l6.9,4.6l5.5-6.5c0.6,0.2,1.3,0.4,1.9,0.5l0.8-1.5c-0.9-0.2-1.8-0.4-2.8-0.7l-0.5-0.1L21,60.5
			l-4.7-3.1l3.3-7.5l-0.4-0.4c-1.3-1.4-2.3-3-3.1-4.7L16,44.3l-7.8,0.8L7,39.4l7.5-2.9l0-0.5c0-0.9,0.1-1.8,0.3-2.7
			c0.2-1,0.4-2,0.8-2.9l0-0.1l0.1-0.5l-5.9-5.1l3.1-4.9l7.1,3.4l0.4-0.4c1.4-1.4,3-2.5,4.7-3.3l0.5-0.2L24.9,11l5.5-1.3l2.7,7.7
			l0.5,0c0.9,0,1.8,0.1,2.7,0.3c1,0.2,1.8,0.4,2.7,0.7l0.5,0.2l5.2-6.3l4.7,3.1L46,22.9l0.4,0.4c1,1.1,1.8,2.2,2.5,3.5l1.2-1.1
			c-0.6-1.1-1.4-2.1-2.2-3.1L51.3,14.8z"/>
	</g>
</g>
<g>
	<g>
		
			<rect x="51.5" y="51.3" transform="matrix(0.7072 0.707 -0.707 0.7072 52.5598 -22.9356)" fill="#F15F43" width="4.9" height="1.3"/>
		<path fill="#F15F43" d="M66.7,69.7l-14-14l5-5l14,14L66.7,69.7z M54.5,55.8l12.1,12.1l3.2-3.2L57.7,52.6L54.5,55.8z"/>
	</g>
	<g>
		<path fill="#F15F43" d="M36.2,38.9l-4.8-8l2.1-2.1l8,4.8L36.2,38.9z M33.1,31.1l3.4,5.7l2.9-2.9l-5.7-3.4L33.1,31.1z"/>
		
			<rect x="36.6" y="39.6" transform="matrix(0.7071 0.7071 -0.7071 0.7071 41.0064 -18.5308)" fill="#F15F43" width="12.6" height="1.3"/>
	</g>
	<path fill="#F15F43" d="M30,68.8l-2-1.9l1.4-4.7L52.3,39v-2.5c0-3.4,1.6-7.5,9.2-7.5h1l-2.6,6l2.1,2.2l6-2.8v1
		c0,7.6-4.1,9.2-7.5,9.2H58L34.7,67.7L30,68.8z M29.5,66.5l0.9,0.9l3.6-0.9l23.4-23h3c3.8,0,5.9-2.3,6.2-6.9l-5,2.3l-3.4-3.5l2.2-5
		c-4.7,0.2-6.9,2.3-6.9,6.1v3L30.5,63L29.5,66.5z"/>
</g>
<g>
	<g>
		<path fill="none" stroke="#F15F43" stroke-width="1.25" stroke-miterlimit="10" d="M-56.3-63.4c1.8-5.6,2.2-11.3,0.2-17
			c-1.1-3.3-3-6.1-6.2-7.9c-2.8-1.5-5.7-2.4-8.9-2.5c-4.3-0.2-8.4,0.4-12.5,1.7c-2.8,0.9-5.3,2.3-7.3,4.4c-0.6,0.6-1,1.3-0.9,2.3
			c0.1,0.8-0.1,1.6-0.5,2.3c-1.1,2.6-1.5,5.3-1.4,8.1c0,0.6,0.3,1.2,0.4,1.8c0,0.2,0,0.4-0.1,0.6c-0.3,0.5-0.7,0.9-1,1.4
			c-0.7,1.1-1.5,2.2-2.1,3.3c-0.5,0.8-0.2,1.4,0.6,1.8c0.2,0.1,0.5,0.2,0.8,0.3c0.3,0.1,0.5,0.2,0.8,0.3c0.4,0.1,0.5,0.4,0.4,0.8
			c-0.1,0.5-0.2,1-0.4,1.5c-0.2,0.8,0,1.4,0.5,2c0.1,0.1,0.2,0.4,0.1,0.6c-0.3,0.9-0.2,1.6,0.4,2.3c0.1,0.1,0.1,0.2,0.2,0.3
			c0.3,0.4,0.4,0.7,0.2,1.2c-0.3,1.2-0.1,2.3,0.7,3.2c1.2,1.4,2.6,2,4.4,1.9c1.2-0.1,2.4-0.2,3.6-0.2c1-0.1,1.5,0.5,1.9,1.3
			c0.5,0.9,1.1,1.8,1.7,2.6c0.6,0.8,1.3,1.6,2,2.4c0.7,0.9,1.4,1.8,2.1,2.6c0.2,0.3,0.3,0.5,0.2,0.7c-0.2,0.6-0.4,1.1-0.7,1.7
			c-1.2,2.4-2.3,4.9-3.5,7.3"/>
	</g>
	<g>
		<g>
			<path fill="none" stroke="#666666" stroke-width="1.25" stroke-miterlimit="10" d="M-43.8-60.3c0.9,0,1.8-0.1,2.7-0.3l2.3,3
				l2.9-1.6l-1.4-3.6c0.3-0.3,0.7-0.7,1-1c0.3-0.3,0.5-0.7,0.7-1.1l3.8,0.5l0.9-3.2l-3.5-1.5c0-0.9-0.1-1.9-0.3-2.7l3-2.3l-1.6-2.9
				l-3.6,1.4c-0.3-0.3-0.7-0.7-1-1c-0.4-0.3-0.7-0.5-1.1-0.7l0.5-3.8l-3.2-0.9l-1.5,3.5c-0.9,0-1.9,0.1-2.8,0.3l-2.3-3.1l-2.9,1.6
				l1.4,3.5l0,0c-0.4,0.3-0.7,0.7-1,1.1c-0.1,0.2-0.2,0.3-0.4,0.5"/>
		</g>
	</g>
	<g>
		<g>
			<path fill="none" stroke="#666666" stroke-width="1.25" stroke-miterlimit="10" d="M-47.9-55.7c-0.4-0.5-0.8-1-1.2-1.4l2.2-5.1
				l-4-2.5l-3.5,4.2c-1.3-0.4-2.6-0.6-3.9-0.7l-2-5.1l-4.6,1.1l0.5,5.5c-0.6,0.3-1.2,0.6-1.7,1c-0.5,0.4-1,0.8-1.5,1.2l-5-2.2
				l-2.5,4l4.2,3.5c-0.4,1.3-0.6,2.6-0.7,3.9l-5.1,1.9l1.1,4.6l5.4-0.6l0,0c0.3,0.6,0.7,1.2,1.1,1.8c0.4,0.5,0.8,1,1.2,1.4l-2.2,5
				l4,2.5l3.4-4.2c1.2,0.4,2.5,0.6,3.9,0.7l2,5.1l4.6-1.1l-0.5-5.5l0,0c0.6-0.3,1.2-0.6,1.7-1c0.5-0.4,1-0.8,1.4-1.2l5,2.2l2.5-4
				l-4.2-3.5c0.4-1.2,0.6-2.5,0.7-3.8l5.1-2l-1.1-4.6l-5.5,0.5C-47.1-54.6-47.5-55.2-47.9-55.7z"/>
		</g>
	</g>
</g>
<g>
	<g>
		<path fill="#808080" d="M204.2-48.4c-0.2,0-0.4-0.1-0.5-0.2c-0.2-0.2-0.2-0.6,0-0.9l3.4-3.3l-3.3-4.5c-0.2-0.2-0.2-0.5,0-0.7
			c0.7-1.2,1.3-2.5,1.7-3.8c0.1-0.2,0.3-0.4,0.5-0.5l5.6-0.8l0-4.2L206-68c-0.3,0-0.5-0.2-0.5-0.5c-0.2-0.7-0.4-1.4-0.6-2.1
			c-0.2-0.6-0.5-1.2-0.9-1.8c-0.1-0.2-0.1-0.5,0-0.7l3.4-4.5l-2.9-3l-4.5,3.3c-0.2,0.2-0.5,0.2-0.7,0c-1.2-0.8-2.5-1.3-3.9-1.7
			c-0.2-0.1-0.4-0.3-0.5-0.5l-0.7-5.5l-4.2-0.1l-0.8,5.5c0,0.3-0.2,0.5-0.5,0.5c-0.7,0.2-1.4,0.4-2.1,0.6c-0.6,0.3-1.2,0.6-1.8,0.9
			c-0.2,0.1-0.5,0.1-0.7,0l-4.4-3.4l-3,2.9l2.1,2.8c0.2,0.3,0.1,0.7-0.1,0.9c-0.3,0.2-0.7,0.1-0.9-0.1l-2.4-3.3
			c-0.2-0.3-0.2-0.6,0.1-0.8l3.8-3.7c0.2-0.2,0.6-0.2,0.8,0l4.5,3.5c0.5-0.3,1-0.5,1.6-0.8c0.6-0.2,1.2-0.4,1.8-0.6l0.9-5.6
			c0-0.3,0.3-0.5,0.6-0.5l5.3,0.1c0.3,0,0.6,0.2,0.6,0.5l0.7,5.7c1.2,0.4,2.4,0.9,3.5,1.5l4.6-3.4c0.2-0.2,0.6-0.2,0.8,0.1l3.7,3.8
			c0.2,0.2,0.2,0.6,0.1,0.8l-3.5,4.6c0.3,0.5,0.5,1,0.7,1.6c0.2,0.6,0.4,1.2,0.6,1.8l5.6,0.8c0.3,0,0.5,0.3,0.5,0.6l-0.1,5.3
			c0,0.3-0.2,0.6-0.5,0.6l-5.7,0.8c-0.3,1.2-0.8,2.3-1.5,3.4l3.4,4.6c0.2,0.3,0.2,0.6-0.1,0.8l-3.8,3.7
			C204.5-48.4,204.3-48.4,204.2-48.4z"/>
	</g>
</g>
<g>
	<path fill="#808080" d="M176.5-29.7h-30.3c-0.3,0-0.6-0.3-0.6-0.6v-32c0-0.3,0.3-0.6,0.6-0.6H167c0.2,0,0.4,0.1,0.5,0.3l3.9,5.8
		h27.3c0.3,0,0.6,0.3,0.6,0.6v2.6c0,0.3-0.3,0.6-0.6,0.6s-0.6-0.3-0.6-0.6v-1.9h-27c-0.2,0-0.4-0.1-0.5-0.3l-3.9-5.8h-19.8v30.7
		h29.7c0.3,0,0.6,0.3,0.6,0.6S176.9-29.7,176.5-29.7z"/>
	
		<path fill="none" stroke="#808080" stroke-width="1.25" stroke-linecap="round" stroke-linejoin="round" stroke-miterlimit="10" d="
		M192.8-57.3"/>
</g>
<g>
	<path fill="#F15F43" d="M196.7-34.1c-0.2,0-0.3-0.1-0.4-0.2l-3.6-3.6c-0.1-0.1-0.2-0.3-0.2-0.4v-8.1c0-0.3,0.3-0.6,0.6-0.6
		s0.6,0.3,0.6,0.6v7.8l3.5,3.5c0.2,0.2,0.2,0.6,0,0.9C197.1-34.1,196.9-34.1,196.7-34.1z"/>
	<path fill="#F15F43" d="M193.1-25.2c-0.3,0-0.6-0.3-0.6-0.6s0.3-0.6,0.6-0.6c6.6,0,11.9-5.3,11.9-11.9s-5.3-11.9-11.9-11.9
		c-0.3,0-0.6-0.3-0.6-0.6s0.3-0.6,0.6-0.6c7.3,0,13.2,5.9,13.2,13.2S200.4-25.2,193.1-25.2z"/>
	<path fill="#F15F43" d="M193.1-25.2c-7.3,0-13.2-5.9-13.2-13.2c0-2.8,0.8-5.4,2.4-7.6c0,0,0-0.1,0.1-0.1l2.3-2.3
		c0.2-0.2,0.6-0.2,0.9,0s0.2,0.6,0,0.9l-2.2,2.2c-1.4,2-2.2,4.4-2.2,6.9c0,6.6,5.3,11.9,11.9,11.9c0.3,0,0.6,0.3,0.6,0.6
		S193.5-25.2,193.1-25.2z"/>
	<path fill="#F15F43" d="M185.4-43c-0.3,0-0.6-0.3-0.6-0.6v-3.8H181c-0.3,0-0.6-0.3-0.6-0.6s0.3-0.6,0.6-0.6h4.4
		c0.3,0,0.6,0.3,0.6,0.6v4.4C186.1-43.2,185.8-43,185.4-43z"/>
</g>
<g>
	<path fill="#808080" d="M159.6-64.1c-0.3,0-0.6-0.3-0.6-0.6v-6.9c0-0.3,0.3-0.6,0.6-0.6h18c0.3,0,0.6,0.3,0.6,0.6S178-71,177.6-71
		h-17.4v6.2C160.2-64.4,159.9-64.1,159.6-64.1z"/>
	<path fill="#808080" d="M186.1-57c-0.3,0-0.6-0.3-0.6-0.6V-71h-9c-0.3,0-0.6-0.3-0.6-0.6s0.3-0.6,0.6-0.6h9.6
		c0.3,0,0.6,0.3,0.6,0.6v13.9C186.7-57.3,186.5-57,186.1-57z"/>
</g>
<path fill="#808080" d="M191.1-56.4c-0.3,0-0.6-0.3-0.6-0.6v-11h-3.8c-0.3,0-0.6-0.3-0.6-0.6s0.3-0.6,0.6-0.6h4.4
	c0.3,0,0.6,0.3,0.6,0.6V-57C191.7-56.7,191.5-56.4,191.1-56.4z"/>
<g>
	<g>
		
			<path fill="none" stroke="#808080" stroke-width="1.25" stroke-linecap="round" stroke-linejoin="round" stroke-miterlimit="10" d="
			M262.4,39.2l4-3.5l-3.4-5.1c0.8-1.2,1.5-2.5,2-3.9l6.1-0.5l0.4-5.3l-6-1.3c-0.1-0.7-0.3-1.5-0.6-2.2c-0.2-0.7-0.5-1.3-0.8-1.9
			l4-4.7l-3.5-4l-5.1,3.4c-1.2-0.9-2.6-1.5-4-2l-0.4-6.1l-5.3-0.4l-1.3,6c-0.7,0.1-1.5,0.3-2.2,0.6c-0.7,0.2-1.3,0.5-2,0.8l-4.6-4
			l-4,3.5l2.2,3.4"/>
	</g>
</g>
<g>
	
		<polyline fill="none" stroke="#808080" stroke-width="1.25" stroke-linecap="round" stroke-linejoin="round" stroke-miterlimit="10" points="
		231.8,56.4 201.5,56.4 201.5,24.4 222.3,24.4 226.4,30.5 254,30.5 254,33.1 	"/>
	
		<path fill="none" stroke="#808080" stroke-width="1.25" stroke-linecap="round" stroke-linejoin="round" stroke-miterlimit="10" d="
		M248.1,29.3"/>
</g>
<g>
	
		<polyline fill="none" stroke="#F15F43" stroke-width="1.25" stroke-linecap="round" stroke-linejoin="round" stroke-miterlimit="10" points="
		248.4,40.3 248.4,48.3 252.1,52 	"/>
	
		<path fill="none" stroke="#F15F43" stroke-width="1.25" stroke-linecap="round" stroke-linejoin="round" stroke-miterlimit="10" d="
		M248.4,60.9c6.9,0,12.5-5.6,12.5-12.5s-5.6-12.5-12.5-12.5"/>
	
		<path fill="none" stroke="#F15F43" stroke-width="1.25" stroke-linecap="round" stroke-linejoin="round" stroke-miterlimit="10" d="
		M248.4,60.9c-6.9,0-12.5-5.6-12.5-12.5c0-2.7,0.9-5.2,2.3-7.3l2.3-2.3"/>
	
		<polyline fill="none" stroke="#F15F43" stroke-width="1.25" stroke-linecap="round" stroke-linejoin="round" stroke-miterlimit="10" points="
		240.8,43.1 240.8,38.6 236.3,38.6 	"/>
</g>
<polyline fill="none" stroke="#808080" stroke-width="1.25" stroke-linecap="round" stroke-linejoin="round" stroke-miterlimit="10" points="
	216.9,20 216.9,15.1 234.9,15.1 "/>
<polyline fill="none" stroke="#808080" stroke-width="1.25" stroke-linecap="round" stroke-linejoin="round" stroke-miterlimit="10" points="
	233.8,15.1 243.4,15.1 243.4,29 "/>
<polyline fill="none" stroke="#808080" stroke-width="1.25" stroke-linecap="round" stroke-linejoin="round" stroke-miterlimit="10" points="
	245,18.1 247.4,18.1 247.4,29.7 "/>
</svg>
