<?xml version="1.0" encoding="UTF-8" standalone="no"?>
<!DOCTYPE svg PUBLIC "-//W3C//DTD SVG 1.1//EN" "http://www.w3.org/Graphics/SVG/1.1/DTD/svg11.dtd">
<!-- Generated by Microsoft Visio, SVG Export Lab.svg Page-1 -->
<svg xmlns="http://www.w3.org/2000/svg" xmlns:xlink="http://www.w3.org/1999/xlink" xmlns:ev="http://www.w3.org/2001/xml-events"
		xmlns:v="http://schemas.microsoft.com/visio/2003/SVGExtensions/" 
		viewBox="0 0 582.198 411.903" xml:space="preserve" color-interpolation-filters="sRGB" class="st7">
	<v:documentProperties v:langID="1033" v:viewMarkup="false"/>

	<style type="text/css">
	<![CDATA[
		.st1 {fill:#999999;stroke:none;stroke-linecap:butt;stroke-width:5.32174}
		.st2 {fill:#f15f43;stroke:none;stroke-linecap:butt;stroke-width:5.32174}
		.st3 {fill:#e6e6e6;fill-opacity:0.5;stroke:none;stroke-linecap:butt;stroke-width:5.32174}
		.st4 {fill:#e6e6e6;fill-opacity:0.5}
		.st5 {stroke:none;stroke-linecap:butt;stroke-width:5.32174}
		.st6 {fill:#cccccc;fill-opacity:0.7;stroke:none;stroke-linecap:butt;stroke-width:5.32174}
		.st7 {fill:none;fill-rule:evenodd;font-size:12px;overflow:visible;stroke-linecap:square;stroke-miterlimit:3}
	]]>
	</style>

	<g v:mID="0" v:index="1" v:groupContext="foregroundPage">
		<title>Page-1</title>
		<v:pageProperties v:drawingScale="0.0393701" v:pageScale="0.0393701" v:drawingUnits="24" v:shadowOffsetX="9"
				v:shadowOffsetY="-9"/>
		<g id="group28-1" transform="translate(5.32174,-5.32174)" v:mID="28" v:groupContext="group">
			<title>Sheet.28</title>
			<g id="shape2-2" v:mID="2" v:groupContext="shape" transform="translate(144.751,-94.1948)">
				<title>XMLID_2_</title>
				<path d="M426.8 411.9 L105.37 411.9 L105.37 406.05 L420.95 406.05 L420.95 110.69 L5.85 110.69 L5.85 207.55 L0 207.55
							 L0 104.84 L426.8 104.84 L426.8 411.9 Z" class="st1"/>
			</g>
			<g id="shape3-4" v:mID="3" v:groupContext="shape" transform="translate(147.944,-357.089)">
				<title>XMLID_3_</title>
				<rect x="0" y="406.049" width="417.757" height="5.85391" class="st1"/>
			</g>
			<g id="shape4-6" v:mID="4" v:groupContext="shape" transform="translate(522.063,-280.456)">
				<title>XMLID_4_</title>
			</g>
			<g id="group5-7" transform="translate(219.256,-76.633)" v:mID="5" v:groupContext="group">
				<title>XMLID_5_</title>
				<g id="shape6-8" v:mID="6" v:groupContext="shape">
					<title>XMLID_6_</title>
					<path d="M0 410.31 L0 411.9 C0 411.37 0 410.84 0 410.31 Z" class="st2"/>
				</g>
				<g id="shape7-10" v:mID="7" v:groupContext="shape">
					<title>XMLID_7_</title>
					<path d="M0 410.31 L0 411.9 C0 411.37 0 410.84 0 410.31 Z" class="st2"/>
				</g>
			</g>
			<g id="shape8-12" v:mID="8" v:groupContext="shape" transform="translate(-1.59872E-014,-149.009)">
				<title>XMLID_10_</title>
				<path d="M78.76 411.9 L40.45 392.74 L53.22 366.67 L43.11 353.36 L14.37 362.94 L0 319.84 L28.74 310.26 L28.74 293.23
							 L2.66 280.46 L21.82 241.61 L47.9 254.91 L61.2 244.27 L51.62 215.53 L94.73 201.16 L104.31 229.9 L122.93
							 229.9 L122.93 235.75 L100.05 235.75 L91 208.61 L59.07 219.26 L68.12 246.4 L48.43 261.3 L24.48 249.59
							 L10.64 277.79 L34.59 289.5 L34.59 314.51 L7.45 323.56 L18.09 355.49 L45.23 346.45 L60.14 366.14 L48.43
							 390.08 L76.1 403.92 L88.34 379.97 L110.69 379.97 L110.69 385.83 L92.07 385.83 L78.76 411.9 Z"
						class="st1"/>
			</g>
			<g id="shape9-14" v:mID="9" v:groupContext="shape" transform="translate(44.7026,0)">
				<title>XMLID_11_</title>
				<path d="M220.85 411.9 L0 411.9 L89.94 265.02 L89.94 189.45 L68.65 189.45 L68.65 159.12 L161.78 159.12 L161.78 189.45
							 L143.15 189.45 L142.09 266.09 L220.85 411.9 ZM10.64 406.05 L210.74 406.05 L136.24 267.68 L137.83 183.6
							 L156.46 183.6 L156.46 165.51 L75.04 165.51 L75.04 183.6 L96.32 183.6 L96.32 267.15 L10.64 406.05 Z"
						class="st1"/>
			</g>
			<g id="shape10-16" v:mID="10" v:groupContext="shape" transform="translate(326.223,-260.765)">
				<title>Sheet.10</title>
				<rect x="0" y="349.106" width="75.0365" height="62.7965" class="st3"/>
			</g>
			<g id="shape11-18" v:mID="11" v:groupContext="shape" transform="translate(440.108,-146.88)">
				<title>Sheet.11</title>
				<rect x="0" y="349.106" width="75.0365" height="62.7965" class="st3"/>
			</g>
			<g id="shape12-20" v:mID="12" v:groupContext="shape" transform="translate(326.223,-146.88)">
				<title>Sheet.12</title>
				<rect x="0" y="349.106" width="77.6974" height="62.7965" class="st3"/>
			</g>
			<g id="shape13-22" v:mID="13" v:groupContext="shape" transform="translate(218.191,-145.816)">
				<title>XMLID_14_</title>
				<path d="M0 411.9 L0 348.04 L75.04 348.04 L75.04 411.37 L18.63 411.37 L0 411.9 Z" class="st4"/>
				<path d="M0 411.9 L0 348.04 L75.04 348.04 L75.04 411.37 L18.63 411.37" class="st5"/>
			</g>
			<g id="shape15-25" v:mID="15" v:groupContext="shape" transform="translate(323.562,-257.572)">
				<title>XMLID_16_</title>
				<path d="M80.89 411.9 L0 411.9 L0 342.72 L80.89 342.72 L80.89 411.9 ZM5.85 406.05 L75.04 406.05 L75.04 349.11 L5.85
							 349.11 L5.85 406.05 Z" class="st2"/>
			</g>
			<g id="shape16-27" v:mID="16" v:groupContext="shape" transform="translate(437.447,-143.687)">
				<title>XMLID_19_</title>
				<path d="M80.89 411.9 L0 411.9 L0 342.72 L80.89 342.72 L80.89 411.9 ZM5.85 406.05 L75.04 406.05 L75.04 349.11 L5.85
							 349.11 L5.85 406.05 Z" class="st2"/>
			</g>
			<g id="shape17-29" v:mID="17" v:groupContext="shape" transform="translate(323.562,-143.687)">
				<title>XMLID_22_</title>
				<path d="M83.55 411.9 L0 411.9 L0 342.72 L84.08 342.72 L84.08 411.9 L83.55 411.9 ZM5.85 406.05 L77.7 406.05 L77.7
							 349.11 L5.85 349.11 L5.85 406.05 Z" class="st2"/>
			</g>
			<g id="shape19-31" v:mID="19" v:groupContext="shape" transform="translate(359.217,-212.87)">
				<title>XMLID_26_</title>
				<rect x="0" y="367.2" width="5.85391" height="44.7026" class="st2"/>
			</g>
			<g id="shape20-33" v:mID="20" v:groupContext="shape" transform="translate(245.332,-209.677)">
				<title>XMLID_27_</title>
				<path d="M240.01 411.9 L233.62 411.9 L233.62 391.15 L5.85 391.15 L5.85 409.24 L0 409.24 L0 385.29 L240.01 385.29
							 L240.01 411.9 Z" class="st2"/>
			</g>
			<g id="group21-35" transform="translate(518.337,-271.409)" v:mID="21" v:groupContext="group">
				<title>XMLID_28_</title>
				<g id="shape22-36" v:mID="22" v:groupContext="shape" transform="translate(5.32174,-31.9304)">
					<title>XMLID_29_</title>
				</g>
				<g id="shape23-37" v:mID="23" v:groupContext="shape" transform="translate(5.32174,-10.1113)">
					<title>XMLID_30_</title>
				</g>
				<g id="shape24-38" v:mID="24" v:groupContext="shape">
					<title>XMLID_31_</title>
				</g>
			</g>
			<g id="shape25-39" v:mID="25" v:groupContext="shape" transform="translate(85.1478,-20.7548)">
				<title>XMLID_32_</title>
				<path d="M44.17 340.06 L0 411.9 L140.49 411.9 L96.86 333.67 C97.39 333.67 73.44 345.91 44.17 340.06 Z" class="st6"/>
			</g>
			<g id="shape27-41" v:mID="27" v:groupContext="shape" transform="translate(212.732,-143.687)">
				<title>XMLID_22_.27</title>
				<path d="M83.55 411.9 L0 411.9 L0 342.72 L84.08 342.72 L84.08 411.9 L83.55 411.9 ZM5.85 406.05 L77.7 406.05 L77.7
							 349.11 L5.85 349.11 L5.85 406.05 Z" class="st2"/>
			</g>
		</g>
	</g>
</svg>
