<?xml version="1.0" encoding="utf-8"?>
<!-- Generator: Adobe Illustrator 19.0.0, SVG Export Plug-In . SVG Version: 6.00 Build 0)  -->
<!DOCTYPE svg PUBLIC "-//W3C//DTD SVG 1.1//EN" "http://www.w3.org/Graphics/SVG/1.1/DTD/svg11.dtd">
<svg version="1.1" id="Layer_1" xmlns="http://www.w3.org/2000/svg" xmlns:xlink="http://www.w3.org/1999/xlink" x="0px" y="0px"
	 viewBox="0 0 100 30" enable-background="new 0 0 100 30" xml:space="preserve">
<g id="XMLID_93_">
	<g id="XMLID_119_">
		<path id="XMLID_148_" fill="#F2F2F2" d="M4.5,2.3C4.2,2.3,4,2.5,4,2.9v15.8h1.6V2.8C5.5,2.5,5.1,2.3,4.5,2.3z M8.7,2.3H7
			c-0.3,0-0.5,0.2-0.5,0.6v15.8h3.4V2.9C9.9,2.6,9.5,2.4,8.7,2.3z"/>
		<path id="XMLID_143_" fill="#F2F2F2" d="M15.5,2.3H13c-0.4,0-0.5,0.2-0.5,0.5v15.8H16V2.9C16,2.5,15.8,2.3,15.5,2.3z M17.4,2.3
			c-0.3,0-0.5,0.2-0.5,0.5v15.8h1.6V2.9C18.4,2.5,18.1,2.3,17.4,2.3z M22.2,2.3h-0.5c-0.4,0-0.5,0.2-0.5,0.5v15.8h1.6V2.9
			C22.7,2.5,22.5,2.3,22.2,2.3z M24.6,2.3c-0.7,0-1,0.2-1,0.5v15.8h1.6V2.9C25.1,2.5,24.9,2.3,24.6,2.3z"/>
		<path id="XMLID_138_" fill="#F2F2F2" d="M29.4,2.9c0-0.3-0.2-0.5-0.5-0.5c-0.7,0-1,0.2-1,0.5v15.8h1.6V7.3
			C29.4,5.3,29.4,3.8,29.4,2.9z M31.3,2.3c-0.7,0-1.1,0.2-1.1,0.5v15.8h1.6V2.9C31.9,2.5,31.7,2.3,31.3,2.3z M33.8,2.3
			c-0.7,0-1.1,0.2-1.1,0.5v15.8h1.6V3.2C34.3,2.6,34.1,2.3,33.8,2.3z M39.2,2.3h-1.8c-0.4,0-0.5,0.2-0.5,0.5v15.8h3.5V2.9
			C40.4,2.5,40,2.3,39.2,2.3z"/>
		<path id="XMLID_133_" fill="#F2F2F2" d="M43.2,2.3c-0.7,0-1.1,0.2-1.1,0.5c0,0.6,0,1.5,0,2.7v13.1h1.6V2.9
			C43.8,2.5,43.6,2.3,43.2,2.3z M45.6,2.3c-0.7,0-1.1,0.2-1.1,0.5v15.8h1.6V2.9C46.1,2.5,46,2.3,45.6,2.3z M51.8,2.3h-2.4
			c-0.4,0-0.5,0.2-0.5,0.5l0,15.8h3.5V2.9C52.3,2.5,52.2,2.4,51.8,2.3z M56.5,2.8c0-0.3-0.2-0.5-0.5-0.5c-0.7,0-1,0.2-1,0.5v15.8
			h1.6V4.1C56.5,3.5,56.5,3.1,56.5,2.8z"/>
		<path id="XMLID_128_" fill="#F2F2F2" d="M58.4,2.3h-0.2c-0.6,0-0.9,0.2-0.9,0.5v15.8H59V2.9C59,2.5,58.8,2.3,58.4,2.3z M60.9,2.3
			c-0.7,0-1,0.2-1,0.5v15.8h1.6V2.9C61.4,2.5,61.2,2.3,60.9,2.3z M67,2.3h-2.4c-0.4,0-0.5,0.2-0.5,0.5v15.8h3.5V2.9
			C67.5,2.5,67.3,2.4,67,2.3z M71.8,2.9c0-0.3-0.2-0.5-0.5-0.5c-0.7,0-1,0.2-1,0.5v15.8h1.6l0-0.5V5.5C71.8,4.3,71.8,3.5,71.8,2.9z"
			/>
		<path id="XMLID_123_" fill="#F2F2F2" d="M77,2.9c0-0.3-0.2-0.5-0.5-0.5c-0.2,0-0.7,0-1.5,0h-0.9c-0.4,0-0.5,0.2-0.5,0.6v15.8H77
			V5.3C77,4.2,77,3.4,77,2.9z M78.3,2.3c-0.3,0-0.5,0.2-0.5,0.6v15.8h1.6V2.9C79.4,2.5,79,2.3,78.3,2.3z M81.2,2.3
			c-0.7,0-1,0.3-1,0.9c0,0.1,0,0.3,0,0.6c0,0.3,0,0.5,0,0.6v14.2h1.6V2.9C81.8,2.5,81.6,2.3,81.2,2.3z M85.6,2.3H85
			c-0.3,0-0.5,0.2-0.5,0.5v15.8h1.6V2.9C86.1,2.5,85.9,2.3,85.6,2.3z"/>
		<path id="XMLID_120_" fill="#F2F2F2" d="M89.8,2.3c-0.7,0-1,0.2-1,0.5v15.8h1.6V2.9C90.4,2.5,90.2,2.3,89.8,2.3z M94.1,2.3h-2.4
			c-0.4,0-0.6,0.2-0.6,0.5v15.8h3.5V2.9C94.7,2.5,94.5,2.3,94.1,2.3z"/>
	</g>
	<g id="XMLID_94_">
		<path id="XMLID_117_" fill="#F2F2F2" d="M6.2,27.8c-0.7,0-1.3-0.3-1.7-1c-0.3-0.5-0.5-1.2-0.5-2c0-0.8,0.2-1.5,0.5-2
			c0.4-0.7,1-1,1.7-1c0.4,0,0.8,0.1,1.2,0.3c0.5,0.2,0.7,0.5,0.7,0.8c0,0.4-0.2,0.6-0.6,0.6c-0.2,0-0.3-0.1-0.5-0.3
			C6.8,23.1,6.6,23,6.3,23c-0.7,0-1.1,0.7-1.1,2c0,1.1,0.4,1.7,1.1,1.7c0.3,0,0.5,0,0.7-0.1c0,0,0-0.1,0-0.5c0-0.1,0-0.1,0-0.2
			c0-0.1,0-0.2,0-0.2c0-0.1-0.1-0.2-0.2-0.2c-0.1,0-0.1,0-0.3,0.1c-0.1,0-0.2,0.1-0.3,0.1c-0.4,0-0.6-0.2-0.6-0.5
			c0-0.4,0.4-0.6,1.1-0.6c0.9,0,1.3,0.2,1.3,0.7v1.7C8.1,27.5,7.4,27.8,6.2,27.8z"/>
		<path id="XMLID_115_" fill="#F2F2F2" d="M15.5,25.3c0-0.7,0-1,0-1.1c0-1.1,0-1.6,0-1.4c0-0.6,0.3-0.9,0.6-0.9
			c0.4,0,0.5,0.2,0.5,0.6c0,0.5,0,1.3,0,2.4c0,1,0,1.8,0,2.4c0,0.5-0.2,0.7-0.7,0.7c-0.3,0-0.6-0.2-0.8-0.5c-0.5-1-1-2-1.4-2.9v2.8
			c0,0.4-0.2,0.6-0.6,0.6c-0.4,0-0.6-0.2-0.6-0.6v-3.6c0-0.7,0-1.1,0-1.2c0.1-0.4,0.3-0.6,0.7-0.6c0.3,0,0.5,0.1,0.7,0.4
			C14.5,23.1,15,24.1,15.5,25.3z"/>
		<path id="XMLID_112_" fill="#F2F2F2" d="M23.3,27.9c-0.7,0-1.2-0.4-1.6-1.1c-0.3-0.6-0.5-1.2-0.5-2c0-0.7,0.2-1.4,0.5-1.9
			c0.4-0.7,0.9-1,1.6-1c0.6,0,1.2,0.3,1.6,1c0.3,0.6,0.5,1.2,0.5,1.9c0,0.7-0.2,1.4-0.5,2C24.5,27.6,24,27.9,23.3,27.9z M23.3,23
			c-0.3,0-0.6,0.2-0.7,0.7c-0.1,0.4-0.2,0.7-0.2,1.1c0,0.4,0.1,0.8,0.2,1.2c0.2,0.5,0.4,0.7,0.7,0.7c0.3,0,0.5-0.3,0.7-0.8
			c0.2-0.4,0.2-0.8,0.2-1.1c0-0.4-0.1-0.7-0.2-1.1C23.9,23.3,23.6,23,23.3,23z"/>
		<path id="XMLID_110_" fill="#F2F2F2" d="M33.1,23.8c-0.4,0-0.6-0.2-0.6-0.6c-0.2-0.1-0.4-0.2-0.6-0.2c-0.5,0-0.7,0.2-0.7,0.5
			c0,0.2,0.2,0.4,0.6,0.7c0.6,0.3,1,0.5,1.2,0.7c0.4,0.4,0.6,0.8,0.6,1.4c0,0.5-0.2,0.9-0.6,1.2c-0.4,0.3-0.8,0.5-1.3,0.5
			c-0.5,0-0.9-0.1-1.3-0.4c-0.4-0.3-0.6-0.7-0.6-1.2c0-0.4,0.2-0.6,0.6-0.6c0.3,0,0.4,0.2,0.5,0.5c0.1,0.3,0.3,0.5,0.7,0.5
			c0.2,0,0.3-0.1,0.5-0.2c0.2-0.1,0.3-0.3,0.3-0.4c0-0.2-0.4-0.6-1.2-1c-0.8-0.5-1.2-1-1.2-1.6c0-0.5,0.2-0.8,0.6-1.2
			c0.4-0.3,0.8-0.5,1.3-0.5c0.4,0,0.8,0.1,1.2,0.4c0.4,0.3,0.6,0.6,0.6,1C33.7,23.6,33.5,23.8,33.1,23.8z"/>
		<path id="XMLID_108_" fill="#F2F2F2" d="M42.1,23.2c-0.5,0-0.8,0-1-0.1l0,0.3c0,0.1,0,0.1,0,0.2c0,0.1,0,0.2,0,0.3
			c0,0.3,0,0.8,0,1.4c0,0.7,0,1.1,0,1.4c0,0.7-0.2,1.1-0.6,1.1c-0.3,0-0.5-0.3-0.6-1c0,0,0-0.4,0-1.4c0-1.4,0-2.2,0.1-2.5L40,23.1
			c-0.2,0-0.3,0.1-0.4,0.1c-0.7,0-1.1-0.2-1.1-0.6c0-0.3,0.2-0.5,0.5-0.6c0.1,0,0.4,0,0.9,0h2.2c0.4,0,0.5,0.2,0.5,0.6
			C42.7,23,42.5,23.2,42.1,23.2z"/>
		<path id="XMLID_106_" fill="#F2F2F2" d="M49.3,24c0,0,0-0.1,0.1-0.3c0-0.2,0.2-0.6,0.5-1.1c0.3-0.5,0.6-0.7,0.7-0.7
			c0.4,0,0.6,0.2,0.6,0.6c0,0.2-0.2,0.6-0.7,1.3c-0.4,0.7-0.7,1.2-0.7,1.3c0,0,0,0.3,0,0.7c0,0.9,0,1.3,0,1.2
			c-0.1,0.5-0.3,0.8-0.6,0.8c-0.4,0-0.6-0.4-0.6-1.2c0-0.2,0-0.4,0-0.7c0-0.3,0-0.5,0-0.5c0-0.2-0.2-0.7-0.7-1.5
			c-0.4-0.7-0.7-1.2-0.7-1.5c0-0.4,0.2-0.6,0.6-0.6c0.2,0,0.4,0.1,0.5,0.3C48.6,22.7,48.9,23.2,49.3,24z"/>
		<path id="XMLID_104_" fill="#F2F2F2" d="M57.9,23.8c0.1-0.3,0.3-0.7,0.5-1c0.3-0.6,0.6-0.9,0.9-0.9c0.4,0,0.6,0.2,0.6,0.5
			c0,0.1-0.4,0.8-1.1,2c-0.2,0.3-0.2,0.4-0.2,0.3c0,0.1,0.2,0.4,0.7,1.1c0.5,0.7,0.7,1.1,0.7,1.3c0,0.5-0.2,0.7-0.6,0.7
			c-0.2,0-0.5-0.2-0.7-0.6c-0.2-0.4-0.4-0.8-0.7-1.4c-0.2,0.4-0.3,0.7-0.5,1.1c-0.3,0.6-0.6,0.9-0.9,0.9c-0.4,0-0.6-0.2-0.6-0.6
			c0-0.2,0.2-0.7,0.7-1.4c0.4-0.7,0.7-1,0.7-1c0-0.1-0.2-0.4-0.7-1.1c-0.4-0.6-0.7-1.1-0.7-1.3c0-0.4,0.2-0.6,0.6-0.6
			c0.2,0,0.5,0.3,0.8,0.8C57.7,23.2,57.9,23.6,57.9,23.8z"/>
		<path id="XMLID_102_" fill="#F2F2F2" d="M67.1,28c-0.6,0-0.9,0-1,0c-0.4-0.1-0.6-0.3-0.6-0.6v-0.2c0-0.8,0.2-1.2,0.6-1.2
			c0.6,0,1,0,1,0c0.4,0.1,0.7,0.2,0.7,0.6C67.7,27.5,67.5,28,67.1,28z"/>
		<path id="XMLID_100_" fill="#F2F2F2" d="M75.3,27.9c-0.6,0-1.2-0.3-1.5-0.9c-0.3-0.5-0.4-1.1-0.4-1.8c0-2.2,0.7-3.3,2-3.3
			c0.3,0,0.7,0.1,1,0.4c0.3,0.2,0.5,0.5,0.5,0.9c0,0.4-0.2,0.5-0.6,0.5c-0.2,0-0.4-0.1-0.5-0.3c-0.1-0.2-0.3-0.3-0.4-0.3
			c-0.3,0-0.5,0.2-0.6,0.5c-0.2,0.3-0.2,0.6-0.2,0.9c0,1.5,0.3,2.3,0.9,2.3c0.2,0,0.3-0.1,0.4-0.3c0.1-0.2,0.3-0.3,0.5-0.3
			c0.4,0,0.6,0.2,0.6,0.6c0,0.3-0.2,0.6-0.5,0.9C76,27.8,75.6,27.9,75.3,27.9z"/>
		<path id="XMLID_97_" fill="#F2F2F2" d="M83.8,27.9c-0.7,0-1.2-0.4-1.6-1.1c-0.3-0.6-0.5-1.2-0.5-2c0-0.7,0.2-1.4,0.5-1.9
			c0.4-0.7,0.9-1,1.6-1c0.6,0,1.2,0.3,1.6,1c0.3,0.6,0.5,1.2,0.5,1.9c0,0.7-0.2,1.4-0.5,2C85,27.6,84.5,27.9,83.8,27.9z M83.9,23
			c-0.3,0-0.6,0.2-0.7,0.7c-0.1,0.4-0.2,0.7-0.2,1.1c0,0.4,0.1,0.8,0.2,1.2c0.2,0.5,0.4,0.7,0.7,0.7c0.3,0,0.5-0.3,0.7-0.8
			c0.2-0.4,0.2-0.8,0.2-1.1c0-0.4-0.1-0.7-0.2-1.1C84.4,23.3,84.2,23,83.9,23z"/>
		<path id="XMLID_95_" fill="#F2F2F2" d="M91.5,24.5c0,0.2,0,0.7,0,1.4c0,0.6,0,1.1,0,1.4c0,0.4-0.2,0.6-0.6,0.6
			c-0.4,0-0.6-0.5-0.6-1.4v-3.8c0-0.5,0.4-0.7,1.2-0.7c0.3,0,0.6,0.6,0.9,1.9c0.3-1.2,0.6-1.9,0.9-1.9c0.4,0,0.7,0,0.8,0.1
			c0.3,0.1,0.4,0.3,0.4,0.6c0,0.4,0,1,0,1.8c0,0.8,0,1.4,0,1.8c0,0.6,0,1,0,1.1c-0.1,0.4-0.3,0.6-0.6,0.6c-0.4,0-0.6-0.4-0.6-1.2
			c0-0.2,0-0.4,0.1-0.7c0-0.3,0.1-0.5,0.1-0.6c0-0.1,0-0.3,0-0.5c0-0.2,0-0.4,0-0.5c-0.1,0.4-0.2,0.7-0.3,1.1
			c-0.2,0.5-0.4,0.7-0.7,0.7c-0.3,0-0.5-0.2-0.7-0.7C91.8,25.2,91.6,24.8,91.5,24.5z"/>
	</g>
</g>
</svg>
