<?xml version="1.0" encoding="utf-8"?>
<!-- Generator: Adobe Illustrator 19.0.0, SVG Export Plug-In . SVG Version: 6.00 Build 0)  -->
<!DOCTYPE svg PUBLIC "-//W3C//DTD SVG 1.1//EN" "http://www.w3.org/Graphics/SVG/1.1/DTD/svg11.dtd">
<svg version="1.1" id="Layer_1" xmlns="http://www.w3.org/2000/svg" xmlns:xlink="http://www.w3.org/1999/xlink" x="0px" y="0px"
	 viewBox="0 0 200 200" enable-background="new 0 0 200 200" xml:space="preserve">
<g id="XMLID_7_">
	
		<line id="XMLID_5_" fill="none" stroke="#999999" stroke-width="4.4408" stroke-miterlimit="10" x1="133.8" y1="130.3" x2="145.1" y2="141.6"/>
	
		<rect id="XMLID_4_" x="157" y="132.7" transform="matrix(-0.7071 0.7071 -0.7071 -0.7071 399.876 160.6794)" fill="none" stroke="#999999" stroke-width="4.4408" stroke-miterlimit="10" width="19.2" height="60.9"/>
	<polygon id="XMLID_3_" fill="none" stroke="#999999" stroke-width="4.4408" stroke-miterlimit="10" points="79.4,89.5 93,75.9 
		70.3,62.3 65.8,66.8 	"/>
	
		<line id="XMLID_2_" fill="none" stroke="#999999" stroke-width="4.4408" stroke-miterlimit="10" x1="115.6" y1="112.1" x2="86.2" y2="82.7"/>
	<path id="XMLID_1_" fill="none" stroke="#999999" stroke-width="4.4408" stroke-miterlimit="10" d="M183.7,81.5L165.5,90l-9.1-9.4
		l7.9-18.3l0,0c-22.7,0-28.3,11.2-28.3,22.5V94l-76,77.1l-4,13.6l4.8,4.5l13.7-3.4l77.2-76h9.1C172.3,109.9,183.7,104.2,183.7,81.5
		L183.7,81.5z"/>
</g>
<g id="XMLID_17_">
	<g id="XMLID_19_">
		<path id="XMLID_14_" fill="none" stroke="#F15F43" stroke-width="5.4716" stroke-miterlimit="10" d="M74.6,140.8
			c-3.1-0.6-6.1-1.4-9-2.5l-15.9,18.2L32.5,145l10.4-22c-1.8-2-3.6-4.2-5.1-6.5c-1.8-2.6-3.3-5.3-4.6-8.1l0,0l-24.1,1.7L5,89.6
			l22.9-7.8c0.2-5.9,1.4-11.8,3.4-17.4l-18.2-16l11.6-17.4l21.9,10.5c2-1.9,4.2-3.6,6.6-5.2c2.5-1.7,5.1-3.2,7.8-4.4L59.6,7.7
			l20.5-4.1l8,22.9c5.8,0.3,11.7,1.4,17.2,3.4l16-18.2l17.3,11.6l-10.4,22.1c1.8,2,3.5,4.1,5.1,6.4"/>
	</g>
</g>
</svg>
