<?xml version="1.0" encoding="utf-8"?>
<!-- Generator: Adobe Illustrator 19.0.0, SVG Export Plug-In . SVG Version: 6.00 Build 0)  -->
<!DOCTYPE svg PUBLIC "-//W3C//DTD SVG 1.1//EN" "http://www.w3.org/Graphics/SVG/1.1/DTD/svg11.dtd">
<svg version="1.1" id="Layer_1" xmlns="http://www.w3.org/2000/svg" xmlns:xlink="http://www.w3.org/1999/xlink" x="0px" y="0px"
	 viewBox="0 0 150 150" enable-background="new 0 0 150 150" xml:space="preserve">
<path id="XMLID_27_" fill="#808080" d="M113.9,79.7c1.7-0.6,3.4-1.2,5-1.8c-0.1-2-0.3-3.8-0.4-5.6c-2-0.4-3.7-0.8-5.3-1.2
	c-0.3-1-0.5-1.8-0.7-2.5s-0.2-1.5-0.3-2.3c1.3-1.1,2.5-2.2,3.9-3.4c-0.8-1.7-1.5-3.4-2.2-5.1c-1.3,0.2-2.5,0.3-3.7,0.4l-8.6,8.4
	c1.7,3.7,2.6,7.8,2.6,12.2c-0.1,5.5-1.7,10.7-4.5,15.1l10.5,11c0.7-1,1.3-1.9,2-2.8c-1.1-1.5-2.2-3-3.3-4.4c0.4-0.9,0.8-1.6,1.1-2.3
	c0.4-0.8,0.8-1.5,1.3-2.4c1.8,0,3.5,0,5.2,0.1c0.5-1.9,1-3.5,1.4-5.2c-1.6-1-3.1-1.9-4.7-2.9C113.4,83,113.6,81.4,113.9,79.7z
	 M87.5,104.7c-4,2-8.5,3.1-13.2,2.9c-4.4,0-8.6-1-12.4-2.9l-8.3,8c-0.2,1.4-0.4,2.8-0.6,4.2c1.9,0.7,3.2,1.8,5.1,2.2
	c1.2-1.3,2.3-2.6,3.4-3.9c1.7,0.5,3.3,0.9,4.8,1.4c0.4,1.9,0.7,3.6,1,5.4c1.9,0.2,3.8,0.3,5.6,0.5c0.7-1.7,1.3-3.3,2-4.9
	c1.7-0.2,3.3-0.3,4.9-0.5c1,1.7,1.9,3.2,2.8,4.8c1.8-0.5,3.6-1,5.5-1.5c0-1.9,0-3.6,0.1-5.4c1.6-0.7,3.1-1.4,4.5-2
	c1.5,1.2,2.9,2.3,4.3,3.4c0.5-0.4,1-0.7,1.5-1L87.5,104.7z M45.3,77.9c0.1-4,0.9-7.7,2.4-11.1l-7.4-7.1c-0.7,1.3-1.3,2.6-2,4
	c-1.8,0-3.5,0-5.3-0.1c-0.5,1.8-1,3.5-1.5,5.3c1.6,0.9,3.1,1.8,4.7,2.8c-0.2,1.7-0.5,3.4-0.7,5c-1.8,0.7-3.4,1.3-5,1.9
	c0.1,2,0.2,3.7,0.4,5.6c1.9,0.4,3.6,0.8,5.4,1.2c0.4,1.7,0.7,3.2,1,4.8c-1.4,1.2-2.7,2.3-4.1,3.6c0.8,1.8,1.6,3.4,2.3,5
	c2-0.2,3.7-0.5,5.4-0.7c0.8,1.1,1.5,2.2,2.2,3.2l6.9-7.2C47,89.5,45.2,83.8,45.3,77.9z M95.5,45.1c0.3-1.8,0.6-3.5,0.8-5.3
	c-1.7-0.9-3.3-1.6-5-2.5c-1.3,1.4-2.4,2.7-3.7,4.1c-1.6-0.5-3.2-0.9-4.8-1.4c-0.4-2-0.7-3.7-1-5.4c-2-0.2-3.8-0.3-5.6-0.4
	c-0.7,1.7-1.4,3.3-2,4.9c-1.7,0.2-3.3,0.4-4.9,0.5c-1-1.7-2-3.2-2.9-4.8c-1.9,0.5-3.6,1-5.5,1.5c0,2-0.1,3.7-0.1,5.4
	c-1.7,0.7-3.2,1.3-4.5,1.9c-1.5-1.2-2.8-2.2-4.2-3.4c-0.8,0.5-1.5,1-2.2,1.5l10.5,11c4.4-2.5,9.4-3.9,14.6-3.9
	c5.2,0.1,10.3,1.6,14.6,4.3l7-7.2C96.3,45.6,95.9,45.4,95.5,45.1z"/>
<path id="XMLID_16_" fill="#E64E38" d="M103.2,19.7c1.5,2.1,4.2,3.2,4.6,6.1c0,0.1,0.2,0.3,0.3,0.4c2.3,2.3,4.7,4.6,7.1,7.1
	c0.4-0.4,0.7-0.7,1-1c4.6-4.6,9.2-9.2,13.7-13.9c1.8-1.9,3.8-3.5,6.3-4.1c0.1-4.2,2.3-6.7,5.7-6.6c3,0.1,5.3,2.4,5.4,5.4
	c0,3.3-2.4,5.5-6.6,5.6c-0.5,3.5-3.2,5.6-5.6,7.9c-4,4.1-8,8.1-12,12.1c-0.3,0.3-0.7,0.7-1.1,1.1c1.2,1.2,2.3,2.3,3.4,3.4
	c1,1,2,2.1,3.1,3c0.6,0.5,1.4,0.8,2,1.3c0.9,0.6,1.7,1.1,2.5,1.8c0.9,0.8,1.7,1.6,2.6,2.5c-2,2-4,4-6.1,6.1c-1.6-1.8-3.9-3-4.6-5.7
	c-0.1-0.4-0.4-0.8-0.7-1c-6.8-6.7-13.6-13.5-20.4-20.2c-0.4-0.4-0.9-0.6-1.4-0.8c-0.8-0.5-1.6-0.8-2.3-1.4c-1.1-0.9-2-1.9-3.1-3
	C99.1,23.9,101.1,21.9,103.2,19.7z M119.6,31.3c1.7,0.8,3.4,1.5,5.1,2.3c0.9,0.4,1.4,0.3,1.9-0.7c-1.7-0.8-3.4-1.5-5-2.3
	C120.7,30.3,120.1,30.3,119.6,31.3z M129.6,21.3c1.8,0.8,3.5,1.5,5.1,2.3c0.9,0.4,1.4,0.3,1.8-0.7c-1.7-0.8-3.4-1.4-5.1-2.2
	C130.6,20.2,130,20.4,129.6,21.3z M116.5,34.1c0,0.2,0,0.4-0.1,0.6c1.7,0.7,3.3,1.4,4.9,2.2c0.9,0.4,1.4,0.2,1.8-0.7
	c-1.9-0.8-3.6-1.6-5.5-2.4C117.5,33.7,117,34,116.5,34.1z M123,28c1.7,0.7,3.4,1.4,5,2.2c0.9,0.4,1.5,0.3,1.9-0.7
	c-1.7-0.8-3.5-1.5-5.1-2.3C123.9,26.9,123.4,27.1,123,28z M133.2,26.3c-1.7-0.7-3.4-1.4-5-2.2c-0.9-0.4-1.5-0.4-1.9,0.6
	c1.7,0.7,3.4,1.4,5,2.2C132.1,27.3,132.7,27.3,133.2,26.3z M139.3,19.4c-1.6-0.7-3.1-1.4-4.6-2.1c-1-0.5-1.1-0.4-1.8,0.7
	c1.9,0.8,3.8,1.7,5.8,2.5C138.9,20.1,139.1,19.8,139.3,19.4z"/>
<path id="XMLID_31_" fill="#404041" d="M72.8,70.2l-3.4,3.6c-1.4-1.4-2.8-2.8-4.2-4.2C56.6,61,48.1,52.4,39.5,43.8
	c-0.3-0.3-0.6-0.6-1-1c1.3-1.3,2.5-2.5,3.9-3.9c1.3,1.3,2.7,2.7,4,4c6.6,6.8,13.1,13.5,19.7,20.3C68.3,65.6,70.6,67.9,72.8,70.2z"/>
<path id="XMLID_25_" fill="#404041" d="M68.2,75.2l-3.3,3.5c-4.3-4.1-8.7-8.3-13-12.4C46.2,60.8,40.5,55.4,34.8,50
	c-0.6-0.5-1.1-1.1-1.7-1.7c1.3-1.3,2.5-2.5,3.9-4c1.6,1.6,3.1,3.1,4.6,4.6c7.1,7,14.1,14,21.2,20.9C64.6,71.6,66.4,73.4,68.2,75.2z"
	/>
<path id="XMLID_15_" fill="#404041" d="M139.1,143.9c-2.4-0.9-4.5-1.7-6.7-2.4c-1.7-0.5-3-1.4-4.3-2.7c-10-9.6-20-19.2-30.1-28.7
	c-6.9-6.6-13.8-13.1-20.7-19.7c0,0-0.1-0.1-0.1-0.1l3.2-3.1c9.5,9.4,19.1,18.8,28.7,28.2c7.5,7.4,15,14.7,22.5,22
	c0.7,0.7,1.5,1.1,2.2,1.7c0.1-0.1,0.2-0.2,0.3-0.3c-0.6-0.8-1.1-1.6-1.8-2.3c-3.8-3.9-7.7-7.7-11.5-11.6c-9.5-9.5-19-19-28.5-28.5
	c-3.5-3.5-7-7-10.6-10.6l3.3-3.2c2.6,2.7,5.2,5.4,7.8,8.1c5.8,6,11.7,12.1,17.5,18.2c8.2,8.5,16.4,17,24.6,25.4
	c0.2,0.2,0.5,0.5,0.6,0.8C136.7,138.1,137.8,140.9,139.1,143.9z"/>
<path id="XMLID_5_" fill="#E64E38" d="M14.8,53c2.1-1.5,3.2-4.2,6.1-4.6c0.1,0,0.3-0.2,0.4-0.3c2.3-2.3,4.6-4.7,7.1-7.1
	c-0.4-0.4-0.7-0.7-1-1c-4.6-4.6-9.2-9.2-13.9-13.7c-1.9-1.8-3.5-3.8-4.1-6.3c-4.2-0.1-6.7-2.3-6.6-5.7c0.1-3,2.4-5.3,5.4-5.4
	c3.3,0,5.5,2.4,5.6,6.6c3.5,0.5,5.6,3.2,7.9,5.6c4.1,4,8.1,8,12.1,12c0.3,0.3,0.7,0.7,1.1,1.1c1.2-1.2,2.3-2.3,3.4-3.4
	c1-1,2.1-2,3-3.1c0.5-0.6,0.8-1.4,1.3-2c0.6-0.9,1.1-1.7,1.8-2.5c0.8-0.9,1.6-1.7,2.5-2.6c2,2,4,4,6.1,6.1c-1.8,1.6-3,3.9-5.7,4.6
	c-0.4,0.1-0.8,0.4-1,0.7C39.7,38.8,33,45.6,26.3,52.4c-0.4,0.4-0.6,0.9-0.8,1.4c-0.5,0.8-0.8,1.6-1.4,2.3c-0.9,1.1-1.9,2-3,3.1
	C19,57.1,17,55.2,14.8,53z M26.4,36.6c0.8-1.7,1.5-3.4,2.3-5.1c0.4-0.9,0.3-1.4-0.7-1.9c-0.8,1.7-1.5,3.4-2.3,5
	C25.3,35.6,25.4,36.1,26.4,36.6z M16.4,26.7c0.8-1.8,1.5-3.5,2.3-5.1c0.4-0.9,0.3-1.4-0.7-1.8c-0.8,1.7-1.4,3.4-2.2,5.1
	C15.3,25.7,15.5,26.2,16.4,26.7z M29.2,39.7c0.2,0,0.4,0,0.6,0.1c0.7-1.7,1.4-3.3,2.2-4.9c0.4-0.9,0.2-1.4-0.7-1.8
	c-0.8,1.9-1.6,3.6-2.4,5.5C28.8,38.8,29.1,39.3,29.2,39.7z M23.1,33.3c0.7-1.7,1.4-3.4,2.2-5c0.4-0.9,0.3-1.5-0.7-1.9
	c-0.8,1.7-1.5,3.5-2.3,5.1C22,32.4,22.2,32.9,23.1,33.3z M21.4,23.1c-0.7,1.7-1.4,3.4-2.2,5c-0.4,0.9-0.4,1.5,0.6,1.9
	c0.7-1.7,1.4-3.4,2.2-5C22.4,24.2,22.4,23.6,21.4,23.1z M14.5,16.9c-0.7,1.6-1.4,3.1-2.1,4.6c-0.5,1-0.4,1.1,0.7,1.8
	c0.8-1.9,1.7-3.8,2.5-5.8C15.2,17.4,14.9,17.2,14.5,16.9z"/>
<path id="XMLID_24_" fill="#404041" d="M111.9,41.9c-1.6,1.6-3.1,3.1-4.6,4.6c-7,7-14,14.1-20.9,21.1C71.2,83.1,56,98.6,40.8,114.1
	c-7.4,7.5-14.7,15-22,22.5c-0.6,0.7-1.1,1.5-1.7,2.2c0.1,0.1,0.2,0.2,0.3,0.3c0.8-0.6,1.6-1.1,2.3-1.8c3.9-3.8,7.7-7.7,11.6-11.5
	c9.5-9.5,19-19,28.5-28.5c9-9,18-18.1,27.1-27.1c8.6-8.6,17.2-17.2,25.8-25.8c0.3-0.3,0.6-0.6,1-1c1.3,1.3,2.5,2.5,3.9,3.9
	c-1.3,1.3-2.7,2.7-4,4C106.6,57.9,99.8,64.4,93,71c-9.2,8.9-18.5,17.9-27.7,26.8c-6.1,5.9-12.1,11.7-18.2,17.6
	c-8.5,8.2-17,16.4-25.4,24.6c-0.2,0.2-0.5,0.5-0.8,0.6c-2.8,1.1-5.5,2.2-8.5,3.5c0.9-2.4,1.7-4.5,2.4-6.7c0.5-1.7,1.4-3,2.7-4.3
	c9.6-10,19.1-20,28.7-30.1c6.6-6.9,13.1-13.8,19.7-20.7c8.1-8.5,16.2-17,24.3-25.5c5.4-5.7,10.8-11.4,16.2-17.1
	c0.5-0.6,1.1-1.1,1.7-1.7C109.3,39.3,110.5,40.5,111.9,41.9z"/>
</svg>
