<?xml version="1.0" encoding="utf-8"?>
<!-- Generator: Adobe Illustrator 18.1.1, SVG Export Plug-In . SVG Version: 6.00 Build 0)  -->
<!DOCTYPE svg PUBLIC "-//W3C//DTD SVG 1.1 Tiny//EN" "http://www.w3.org/Graphics/SVG/1.1/DTD/svg11-tiny.dtd">
<svg version="1.1" baseProfile="tiny" id="Layer_1" xmlns="http://www.w3.org/2000/svg" xmlns:xlink="http://www.w3.org/1999/xlink"
	 x="0px" y="0px" viewBox="0 0 85 60" xml:space="preserve">
<g>
	<path fill="none" stroke="#999999" stroke-width="2" stroke-miterlimit="10" d="M73.8,18.4"/>
	<path fill="none" stroke="#999999" stroke-width="2" stroke-miterlimit="10" d="M72.7,24.4"/>
	<g>
		<polygon fill="#999999" points="83.9,58.6 1.9,58.6 1.9,57.5 82.8,57.5 82.8,0.8 3.1,0.8 3.1,58 2,58 2,-0.3 83.9,-0.3 		"/>
		<rect x="3" y="6" fill="#999999" width="80" height="1"/>
	</g>
	<image width="81" height="5" xlink:href="94794A1C25C5F67A.png"  transform="matrix(1 0 0 1 3 1)">
	</image>
	<g>
		<g>
			<path fill="none" stroke="#4D4D4D" stroke-miterlimit="10" d="M34,39.1l3.3,0.9l-0.3,3L33.6,43c-0.3,0.8-0.7,1.5-1.2,2.1l1.8,3
				L31.8,50l-2.5-2.4c-0.4,0.2-0.7,0.3-1.1,0.4c-0.4,0.1-0.8,0.2-1.2,0.3l0,0L26,51.6l-3-0.3l-0.1-3.5c-0.8-0.3-1.5-0.7-2.2-1.2
				l-3,1.8L16,46l2.4-2.5c-0.2-0.4-0.3-0.7-0.4-1.1c-0.1-0.4-0.2-0.9-0.3-1.3l0,0l-3.3-0.8l0.3-3l3.5-0.1c0.3-0.8,0.7-1.5,1.2-2.2
				l-1.8-3l2.3-1.8l2.5,2.4c0.4-0.2,0.7-0.3,1.1-0.4c0.4-0.1,0.8-0.2,1.2-0.3l0.9-3.3l3,0.3l0.1,3.5c0.8,0.3,1.5,0.7,2.2,1.2l3-1.8
				l1.8,2.3l-2.4,2.5c0.2,0.3,0.3,0.7,0.4,1.1C33.9,38.3,34,38.7,34,39.1z"/>
		</g>
	</g>
	<g>
		<g>
			<path fill="none" stroke="#4D4D4D" stroke-miterlimit="10" d="M70.7,31.4l4.7,1.2l-0.5,4.1l-4.9,0.2c-0.4,1.1-1,2.1-1.7,3
				l2.5,4.2l-3.3,2.6L64,43.3c-0.5,0.2-1,0.4-1.5,0.6c-0.6,0.2-1.2,0.3-1.7,0.4l0,0l-1.2,4.7l-4.1-0.5l-0.2-4.9
				c-1.1-0.4-2.1-1-3-1.7l-4.1,2.5L45.5,41l3.3-3.5c-0.2-0.5-0.4-1-0.6-1.5c-0.2-0.6-0.3-1.2-0.4-1.8l0,0L43.2,33l0.5-4.1l4.8-0.1
				c0.4-1.1,1-2.2,1.7-3.1l-2.5-4.2l3.3-2.6l3.5,3.3c0.5-0.2,1-0.4,1.6-0.6c0.6-0.2,1.2-0.3,1.7-0.4l1.2-4.7l4.1,0.5l0.1,4.8
				c1.1,0.4,2.1,1,3.1,1.7l4.2-2.5l2.6,3.3l-3.3,3.6c0.2,0.5,0.4,1,0.6,1.5C70.5,30.2,70.7,30.8,70.7,31.4z"/>
		</g>
	</g>
	<g>
		<g>
			<path fill="none" stroke="#4D4D4D" stroke-miterlimit="10" d="M42.6,16.5l2.9-0.4l0.7,2.4l-2.7,1.2c0,0.7,0,1.4-0.2,2.1l2.4,1.7
				l-1.2,2.2l-2.8-1c-0.2,0.2-0.5,0.5-0.7,0.7c-0.3,0.2-0.6,0.4-0.9,0.6l0,0l0.4,2.9L38,29.7L36.8,27c-0.7,0-1.4-0.1-2.1-0.2
				L33,29.2l-2.2-1.2l1-2.8c-0.2-0.2-0.5-0.5-0.7-0.7c-0.2-0.3-0.5-0.6-0.6-0.9l0,0L27.6,24l-0.7-2.4l2.7-1.2c0-0.7,0-1.4,0.2-2.1
				l-2.4-1.7l1.2-2.2l2.8,1c0.2-0.2,0.5-0.5,0.7-0.7c0.3-0.2,0.6-0.4,0.9-0.6l-0.4-2.9l2.4-0.7l1.2,2.7c0.7,0,1.4,0,2.1,0.2l1.7-2.4
				l2.2,1.2l-1,2.8c0.2,0.2,0.5,0.5,0.7,0.7C42.2,15.9,42.4,16.2,42.6,16.5z"/>
		</g>
	</g>
	<polygon fill="none" stroke="#F15F43" stroke-miterlimit="10" points="23.2,38 33.8,20 38.2,18 60.5,28 61.2,37 26.2,43.5 	"/>
	<g>
		<path fill="#1C1D1F" stroke="#4D4D4D" stroke-miterlimit="10" d="M29.2,41.9c1-1.8,0.3-4-1.4-5c-1.8-1-4-0.3-5,1.4"/>
		<path fill="#1C1D1F" stroke="#4D4D4D" stroke-miterlimit="10" d="M22.7,38.3c-1,1.8-0.3,4,1.4,5c1.8,1,4,0.3,5-1.4"/>
	</g>
	<g>
		<circle fill="#1C1D1F" stroke="#4D4D4D" stroke-miterlimit="10" cx="59.4" cy="32.8" r="5.2"/>
	</g>
	<g>
		<path fill="#1C1D1F" stroke="#4D4D4D" stroke-miterlimit="10" d="M36.3,22.7c1.5,0.1,2.8-0.9,2.9-2.4c0.1-1.5-0.9-2.8-2.4-2.9
			c-1.5-0.1-2.8,0.9-2.9,2.4C33.8,21.2,34.9,22.5,36.3,22.7z"/>
	</g>
</g>
</svg>
