<?xml version="1.0" encoding="utf-8"?>
<!-- Generator: Adobe Illustrator 18.1.1, SVG Export Plug-In . SVG Version: 6.00 Build 0)  -->
<!DOCTYPE svg PUBLIC "-//W3C//DTD SVG 1.1 Tiny//EN" "http://www.w3.org/Graphics/SVG/1.1/DTD/svg11-tiny.dtd">
<svg version="1.1" baseProfile="tiny" id="Layer_1" xmlns="http://www.w3.org/2000/svg" xmlns:xlink="http://www.w3.org/1999/xlink"
	 x="0px" y="0px" viewBox="0 0 85 60" xml:space="preserve">
<g>
	<g>
		<polygon fill="#999999" points="83.7,59.5 2,59.5 2,58.4 82.6,58.4 82.6,1.9 3.3,1.9 3.3,58.9 2.2,58.9 2.2,0.8 83.7,0.8 		"/>
		<rect x="3" y="7" fill="#999999" width="80" height="1"/>
	</g>
	<circle fill="#E64D38" cx="14.3" cy="19" r="3"/>
	<rect x="21.3" y="16.5" fill="#4D4D4D" width="54" height="1"/>
	<rect x="21.3" y="19.5" fill="#4D4D4D" width="27.3" height="1"/>
	<g>
		<circle fill="#E64D38" cx="14.3" cy="32" r="3"/>
		<rect x="21.3" y="30.5" fill="#4D4D4D" width="54" height="1"/>
		<rect x="21.3" y="33.5" fill="#4D4D4D" width="27.3" height="1"/>
	</g>
	<g>
		<circle fill="none" stroke="#999999" stroke-miterlimit="10" cx="14.3" cy="47" r="3"/>
		<rect x="21.3" y="45.5" fill="#4D4D4D" width="54" height="1"/>
		<rect x="21.3" y="48.5" fill="#4D4D4D" width="27.3" height="1"/>
	</g>
	<image width="80" height="6" xlink:href="94579DE93D8CA55E.png"  transform="matrix(1 0 0 1 3 2)">
	</image>
</g>
</svg>
