<?xml version="1.0" encoding="utf-8"?>
<!-- Generator: Adobe Illustrator 18.1.1, SVG Export Plug-In . SVG Version: 6.00 Build 0)  -->
<!DOCTYPE svg PUBLIC "-//W3C//DTD SVG 1.1 Tiny//EN" "http://www.w3.org/Graphics/SVG/1.1/DTD/svg11-tiny.dtd">
<svg version="1.1" baseProfile="tiny" id="Layer_1" xmlns="http://www.w3.org/2000/svg" xmlns:xlink="http://www.w3.org/1999/xlink"
	 x="0px" y="0px" viewBox="0 0 85 60" xml:space="preserve">
<g>
	<g>
		<polygon fill="#999999" points="82.7,59.5 1,59.5 1,58.4 81.6,58.4 81.6,1.9 2.3,1.9 2.3,58.9 1.2,58.9 1.2,0.8 82.7,0.8 		"/>
		<rect x="2" y="7" fill="#999999" width="80" height="1"/>
	</g>
	<image width="80" height="5" xlink:href="9470DF0F6BB7A231.png"  transform="matrix(1 0 0 1 3 2)">
	</image>
	<g>
		<circle fill="none" stroke="#4D4D4D" stroke-miterlimit="10" cx="36.6" cy="30.7" r="19.8"/>
		<line fill="none" stroke="#4D4D4D" stroke-miterlimit="10" x1="36.6" y1="11" x2="36.6" y2="50.4"/>
		<line fill="none" stroke="#4D4D4D" stroke-miterlimit="10" x1="56.3" y1="30.7" x2="16.8" y2="30.7"/>
		<path fill="none" stroke="#4D4D4D" stroke-miterlimit="10" d="M35.3,11c0,0-8.9,7-8.9,19.7s8.9,19.7,8.9,19.7"/>
		<path fill="none" stroke="#4D4D4D" stroke-miterlimit="10" d="M37.8,11c0,0,8.9,7,8.9,19.7s-8.9,19.7-8.9,19.7"/>
		<path fill="none" stroke="#4D4D4D" stroke-miterlimit="10" d="M21.3,18c0,0,3.2,6.4,15.3,6.4S51.8,18,51.8,18"/>
		<path fill="none" stroke="#4D4D4D" stroke-miterlimit="10" d="M21.3,43.4c0,0,3.2-6.4,15.3-6.4s15.3,6.4,15.3,6.4"/>
	</g>
	<path fill="#1C1D1F" stroke="#F15F43" stroke-miterlimit="10" d="M63.9,34.9l1.8,0.2c2.3,0.2,4.7-0.7,5.2-5.3l0,0L67,31.1l-1.6-2.1
		l2-3.5l0,0c-4.6-0.5-6,1.7-6.2,4L61,31.3L43.8,45.5l-1.8-0.2c-2.3-0.2-4.7,0.7-5.2,5.3l0,0l3.8-1.4l1.6,2.1l-2,3.5l0,0
		c4.6,0.5,6-1.7,6.2-4l0.2-1.8L63.9,34.9z"/>
	<g>
		<circle fill="#1C1D1F" stroke="#F15F43" stroke-miterlimit="10" cx="46.5" cy="34.1" r="8.7"/>
		<line fill="#1C1D1F" stroke="#F15F43" stroke-miterlimit="10" x1="52.6" y1="40.2" x2="55.2" y2="42.8"/>
		
			<rect x="57.5" y="41" transform="matrix(-0.7039 0.7103 -0.7103 -0.7039 134.4234 37.7084)" fill="#1C1D1F" stroke="#F15F43" stroke-miterlimit="10" width="3.7" height="11.7"/>
	</g>
</g>
</svg>
