<?xml version="1.0" encoding="utf-8"?>
<!-- Generator: Adobe Illustrator 18.1.1, SVG Export Plug-In . SVG Version: 6.00 Build 0)  -->
<!DOCTYPE svg PUBLIC "-//W3C//DTD SVG 1.1 Tiny//EN" "http://www.w3.org/Graphics/SVG/1.1/DTD/svg11-tiny.dtd">
<svg version="1.1" baseProfile="tiny" id="Layer_1" xmlns="http://www.w3.org/2000/svg" xmlns:xlink="http://www.w3.org/1999/xlink"
	 x="0px" y="0px" viewBox="0 0 85 60" xml:space="preserve">
<g>
	<g>
		<polygon fill="#999999" points="83.7,58.5 2,58.5 2,57.4 82.6,57.4 82.6,0.9 3.3,0.9 3.3,57.9 2.2,57.9 2.2,-0.2 83.7,-0.2 		"/>
		<rect x="3" y="6" fill="#999999" width="80" height="1"/>
	</g>
	<image width="81" height="5" xlink:href="9481B528DFD44AC3.png"  transform="matrix(1 0 0 1 2 1)">
	</image>
	<g>
		<path fill="#666666" d="M24.7,39.1c0.2,0.5,0.4,0.8,0.5,1.2c0.2,0.6,0.2,0.7-0.4,0.9c-0.3,0.1-0.6,0.2-1,0.4
			c0.3,0.9,0.7,1.7,1,2.5c0.2,0.4,0.3,0.9,0.5,1.3c0.4,1.1,0,2.2-1.1,2.6c-0.6,0.3-1.3,0.5-1.9,0.8c-1.2,0.5-2.3,0-2.8-1.1
			c-1-2.5-2-4.9-3-7.4c-0.2-0.4-0.2-0.9-0.5-1.1c-0.3-0.2-0.8,0-1.2-0.1c-0.4,0-0.8,0-1.1-0.1c-1-0.2-1.6-1-1.6-1.9
			c0-0.1-0.1-0.3-0.2-0.4c-3-2-3-6.1,0-8.1c0.1-0.1,0.2-0.2,0.2-0.4c0.1-1.1,1-1.9,2.1-1.9c3,0,6,0,9,0c3.9,0,7.6-0.7,11.1-2.3
			c2.3-1,4.3-2.4,6.3-3.9c0.8-0.6,1.7-1.2,2.5-1.8c0.3-0.2,0.6-0.3,1-0.3c0.6,0,1.1,0.5,1.1,1.2c0,2.3,0,4.6,0,6.9
			c0,0.1,0,0.3,0.1,0.4c1.3,1.1,2,2.6,2.4,4.2c0.4,2.2,0.2,4.3-0.9,6.3c-0.4,0.6-0.9,1.2-1.4,1.8c-0.1,0.1-0.2,0.3-0.2,0.5
			c0,2.2,0,4.5,0,6.7c0,0.5-0.1,0.9-0.6,1.2c-0.5,0.3-1,0.2-1.4-0.1c-1.3-0.9-2.5-1.9-3.8-2.8c-3.7-2.7-7.7-4.3-12.2-4.9
			C26.4,39.2,25.6,39.2,24.7,39.1z M41.9,20.3c-0.1,0-0.1,0-0.1,0c-0.5,0.4-1.1,0.8-1.6,1.2c-3.5,2.7-7.4,4.4-11.8,5.2
			c-0.3,0-0.3,0.2-0.3,0.4c0,3.7,0,7.5,0,11.2c0,0.2,0.1,0.4,0.3,0.4c2.9,0.5,5.6,1.4,8.2,2.8c1.8,0.9,3.4,2.1,5,3.3
			c0.1,0.1,0.2,0.1,0.4,0.2C41.9,36.8,41.9,28.6,41.9,20.3z M27.2,26.9c-0.1,0-0.2,0-0.3,0c-1.4,0.1-2.9,0.2-4.3,0.2
			c-2.8,0-5.5,0-8.3,0c-0.8,0-1.4,0.5-1.4,1.3c0,2.9,0,5.7,0,8.6c0,0.7,0.4,1.1,1.1,1.3c0.2,0,0.4,0,0.6,0c4.2,0.1,8.4-0.1,12.6,0.2
			C27.2,34.7,27.2,30.8,27.2,26.9z M44.5,32.7c0-1,0-2,0-3c0-3.5,0-6.9,0-10.4c0-0.2-0.1-0.5-0.2-0.5c-0.2-0.1-0.4,0-0.6,0.1
			c-0.2,0.1-0.4,0.3-0.6,0.4c-0.3,0.2-0.4,0.4-0.4,0.7c0,8.2,0,16.3,0,24.5c0,0.8,0.2,1.4,0.9,1.7c0.2,0.1,0.4,0.3,0.6,0.2
			c0.3-0.1,0.2-0.4,0.2-0.6C44.5,41.5,44.5,37.1,44.5,32.7z M17,39.1c0,0.1,0,0.1,0,0.2c1.1,2.7,2.2,5.4,3.3,8.1
			c0.3,0.7,0.9,0.9,1.6,0.6c0.6-0.2,1.2-0.5,1.9-0.8c0.8-0.3,1-0.9,0.7-1.7c-0.8-2.1-1.6-4.2-2.5-6.2c-0.1-0.2-0.2-0.3-0.4-0.3
			c-1,0-1.9,0-2.9,0C18.2,39.1,17.6,39.1,17,39.1z M45.3,37.8c2.6-2.6,2.4-8.1,0-10.3C45.3,31,45.3,34.4,45.3,37.8z M12.1,29.5
			c-1.1,0.9-1.7,2-1.7,3.3c0,1.3,0.6,2.3,1.7,3.1C12.1,33.7,12.1,31.6,12.1,29.5z M24.4,40.5c-0.2-0.5-0.4-0.9-0.6-1.3
			c-0.3,0-0.6,0-0.9,0c0.2,0.6,0.4,1.1,0.7,1.7C23.8,40.7,24.1,40.6,24.4,40.5z"/>
	</g>
	<path fill="#F15F43" d="M76.8,16.8l-16.7,3.4l1,2.3l-10.6,4.7l14.9-3.4c-0.1,0.2-1-2.5-1-2.5L76.8,16.8z"/>
	<path fill="#F15F43" d="M50.6,34.4l16.7,3.4l-1,2.3l10.6,4.7l-14.9-3.4c0.1,0.2,1-2.5,1-2.5L50.6,34.4z"/>
	<path fill="#F15F43" d="M71.1,29.5l-11.9-0.3l0.3,1.5l-8,1.2L62.2,32c-0.1,0.1-0.2-1.6-0.2-1.6L71.1,29.5z"/>
</g>
</svg>
