<?xml version="1.0" encoding="utf-8"?>
<!-- Generator: Adobe Illustrator 18.1.1, SVG Export Plug-In . SVG Version: 6.00 Build 0)  -->
<!DOCTYPE svg PUBLIC "-//W3C//DTD SVG 1.1 Tiny//EN" "http://www.w3.org/Graphics/SVG/1.1/DTD/svg11-tiny.dtd">
<svg version="1.1" baseProfile="tiny" id="Layer_1" xmlns="http://www.w3.org/2000/svg" xmlns:xlink="http://www.w3.org/1999/xlink"
	 x="0px" y="0px" viewBox="0 0 85 60" xml:space="preserve">
<g>
	<polygon fill="#999999" points="83.7,59.5 2,59.5 2,58.4 82.6,58.4 82.6,1.9 3.3,1.9 3.3,58.9 2.2,58.9 2.2,0.8 83.7,0.8 	"/>
	<rect x="3" y="7" fill="#999999" width="80" height="1"/>
	<path fill="none" stroke="#999999" stroke-width="2" stroke-miterlimit="10" d="M75.6,17"/>
	<path fill="none" stroke="#999999" stroke-width="2" stroke-miterlimit="10" d="M35.9,17"/>
	<path fill="none" stroke="#999999" stroke-width="2" stroke-miterlimit="10" d="M75.6,21.5"/>
	<path fill="none" stroke="#999999" stroke-width="2" stroke-miterlimit="10" d="M35.9,21.5"/>
	<path fill="none" stroke="#999999" stroke-width="2" stroke-miterlimit="10" d="M74.4,23.6"/>
	<rect x="29" y="29.8" fill="none" stroke="#4D4D4D" stroke-miterlimit="10" width="27.4" height="18.8"/>
	<path fill="none" stroke="#4D4D4D" stroke-miterlimit="10" d="M33.6,29.7v-5.4c0-5,4.1-9.1,9.1-9.1s9.1,4.1,9.1,9.1v5.4"/>
	<image width="81" height="6" xlink:href="946008F5F79AF9A5.png"  transform="matrix(1 0 0 1 2 2)">
	</image>
	<image width="6" height="11" xlink:href="946008F5F79AF9AC.png"  transform="matrix(1 0 0 1 39 33)">
	</image>
	<path fill="none" stroke="#F15F43" stroke-miterlimit="10" d="M43.9,38.4l0.8,5.1h-4.6l0.8-5c-0.6-0.4-1.1-1.3-1.1-2.2
		c0-1.4,1.1-2.6,2.5-2.6c1.4,0,2.5,1.2,2.5,2.6C44.8,37.1,44.4,37.9,43.9,38.4z"/>
</g>
</svg>
