<?xml version="1.0" encoding="utf-8"?>
<!-- Generator: Adobe Illustrator 18.1.1, SVG Export Plug-In . SVG Version: 6.00 Build 0)  -->
<!DOCTYPE svg PUBLIC "-//W3C//DTD SVG 1.1 Tiny//EN" "http://www.w3.org/Graphics/SVG/1.1/DTD/svg11-tiny.dtd">
<svg version="1.1" baseProfile="tiny" id="Layer_1" xmlns="http://www.w3.org/2000/svg" xmlns:xlink="http://www.w3.org/1999/xlink"
	 x="0px" y="0px" viewBox="0 0 85 60" xml:space="preserve">
<g>
	<polygon fill="#999999" points="83.7,59.5 2,59.5 2,58.4 82.6,58.4 82.6,1.9 3.3,1.9 3.3,58.9 2.2,58.9 2.2,0.8 83.7,0.8 	"/>
	<rect x="3" y="7" fill="#999999" width="80" height="1"/>
	<image width="81" height="6" xlink:href="94687402B1A94DE8.png"  transform="matrix(1 0 0 1 2 2)">
	</image>
	<polygon fill="#4D4D4D" points="67.9,51.5 20.3,51.5 20.3,15 21.1,15 21.1,50.6 67.9,50.6 	"/>
	<g>
		<circle fill="#F15F43" cx="27.3" cy="46.6" r="2.5"/>
		<circle fill="#F15F43" cx="38.8" cy="35.3" r="2.5"/>
		
			<rect x="32.5" y="35.3" transform="matrix(0.67 0.7423 -0.7423 0.67 41.1555 -10.8931)" fill="#F15F43" width="0.7" height="11.1"/>
		
			<rect x="39.7" y="38.6" transform="matrix(0.7778 0.6285 -0.6285 0.7778 34.2261 -19.0205)" fill="#F15F43" width="8.5" height="0.7"/>
		<polygon fill="#F15F43" points="50.6,41.4 50.2,40.9 66.5,26.5 66.9,27.1 		"/>
		<circle fill="#F15F43" cx="49" cy="42.3" r="2.5"/>
	</g>
	<g>
		<path fill="#F15F43" d="M66.4,26.6l-5.3,0.1c-0.2,0-0.3-0.1-0.3-0.3c0-0.2,0.1-0.3,0.3-0.3l6.4-0.2c0.2,0,0.4,0.2,0.3,0.4L67,32.5
			c0,0.2-0.2,0.3-0.4,0.3c-0.2,0-0.3-0.2-0.3-0.4l0.5-5.3L66.4,26.6z"/>
	</g>
</g>
</svg>
